<?xml version="1.0" encoding="utf-8" ?>
<svg baseProfile="full" height="300mm" version="1.1" viewBox="0,0,200,300" width="200mm" xmlns="http://www.w3.org/2000/svg" xmlns:ev="http://www.w3.org/2001/xml-events" xmlns:xlink="http://www.w3.org/1999/xlink"><defs /><rect fill="#222222" height="300" width="200" x="0" y="0" /><text fill="#FFFFFF" style="font-size:12px; font-family:Arial; font-weight:bold;" x="10" y="20">Over 10km Runs</text><text fill="#FFFFFF" style="font-size:4px; font-family:Arial" x="10" y="280">ATHLETE</text><text fill="#FFFFFF" style="font-size:9px; font-family:Arial" x="10" y="290">shellj</text><text fill="#FFFFFF" style="font-size:4px; font-family:Arial" x="120" y="280">STATISTICS</text><text fill="#FFFFFF" style="font-size:3px; font-family:Arial" x="120" y="285">Number: 3</text><text fill="#FFFFFF" style="font-size:3px; font-family:Arial" x="120" y="290">Weekly: 1.5</text><text fill="#FFFFFF" style="font-size:3px; font-family:Arial" x="141" y="285">Total: 80.2 km</text><text fill="#FFFFFF" style="font-size:3px; font-family:Arial" x="141" y="290">Avg: 26.7 km</text><text fill="#FFFFFF" style="font-size:3px; font-family:Arial" x="167" y="285">Min: 16.8 km</text><text fill="#FFFFFF" style="font-size:3px; font-family:Arial" x="167" y="290">Max: 41.7 km</text><polyline fill="none" points="62.9750033232267,115.5 62.818383048899705,115.28151066019927 62.66176277457271,115.14569253219815 62.3535744928522,114.98034827893571 62.045386211102596,114.87405528651652 61.92413180519361,114.80319317930116 61.87866140296683,114.82090871453693 61.74730246321997,114.74414135470579 61.514898185181664,114.6791842756138 61.05514189603855,114.46659694370828 60.82273761800025,114.32487160673554 59.93859090813203,113.72253491691663 59.56472315650899,113.433174788006 59.165594070305815,113.16743457497068 58.6300537774805,113.03751667781762 58.210715623630676,112.88988233730925 57.983363612525864,112.85445003760105 57.51855505644926,112.71862601396424 57.35183024831349,112.62413954205476 57.1547918386932,112.39973353127425 56.78597635400365,112.05131188753876 56.48284033915843,111.71469908474683 55.851306974946056,111.14186211206106 55.30566214828286,110.3859445463604 55.15409414083115,110.19105789166133 55.20966907692491,110.05522739723165 55.24503494531382,109.88396239033318 55.386498418898555,109.56505373798791 55.57848456161446,109.18708557191712 55.76541843742598,108.72052759262078 55.92203871172387,108.43114157279706 56.19486112508457,107.75787034152381 56.35148139941157,107.52163289985765 56.356533666315954,107.47438529171632 56.24538379421574,107.49210314944867 56.169599790504435,107.48029124490859 55.74015710284584,107.21452273303294 55.41681202038308,106.97828299494358 55.27534854679834,106.83063265160308 54.744860520848306,106.38767928134621 54.52256077664788,106.23412129357166 54.48214264132548,106.23412129357166 54.38614956999663,106.18096650720327 54.26994743096293,106.17506041671732 54.194163427251624,106.15143604849436 53.46158472477691,105.77344479895328 52.94625349959824,105.54310512772645 52.784580958337756,105.4958558470571 52.54207214649068,105.46632502636567 52.44607907513273,105.46041886035891 52.435974541294854,105.47223119174305 52.405660939839436,105.45451269371551 52.304615601547994,105.3245768698107 52.20862253019004,105.09423534867892 52.087368124281056,104.69851821138946 52.087368124281056,104.5862994087729 52.122733992669964,104.52723679057817 52.11768172576558,104.50361172582416 51.96611371834297,104.19057867501033 51.70844810575363,103.31053296862956 51.531618763750885,102.96205466399988 51.223430482059484,102.19421344228613 51.14259421141469,101.91660671153659 51.081967008445645,101.57402629168791 50.93545126795652,101.06605835499795 50.75862192598288,100.25684408112647 50.61210618549376,99.76067770877125 50.495904046460055,99.49487248262085 50.38475417435984,99.32357511128794 50.2837088360975,99.06958149061029 50.08161815954372,98.79195923561565 50.01088642276591,98.66200791886877 49.86942294918117,98.26624522868588 49.76837761088973,97.91773546380864 49.63701867114287,97.62238650359723 49.5460778666893,97.2384305210835 49.53597333288053,97.04349801235367 49.60165280275396,96.21650404798493 49.74816854324308,95.15911536027852 50.041200024221325,94.17259501766603 50.041200024221325,94.10170665742044 49.960363753605634,93.74726350685523 49.909841084474465,93.65274495352787 49.87952748298994,93.50505939377035 49.778482144727604,93.27466914083197 49.72290720869205,93.1033526957035 49.7026981410163,92.97929563156868 49.71785494175856,92.88477577872982 49.53597333288053,92.26448527534376 49.30862132177572,91.72098698164336 49.192419182742015,91.30154446537199 49.09642611138406,91.08296049711862 48.954962637799326,90.62215905870107 48.88423090099241,90.47446548541848 48.84381276569911,90.27360159895397 48.77813329582568,90.13181489119233 48.56088581852964,89.85414821248196 48.474997281009564,89.70054477583835 48.232488469133386,89.1156662847352 48.09102499554865,88.71983595155689 47.93945698812604,88.39489850652899 47.93440472125076,88.29446291373097 47.97987512347754,88.14085518710272 47.96471832273528,88.12903919062956 47.97987512347754,88.15857917712128 47.91419565357501,88.28855493205265 47.85356845060596,88.32400281270384 47.77778444692376,88.3299107906314 47.7626276461815,88.35354269607342 47.7626276461815,88.49533391870864 47.80304578147479,88.65484861381992 47.899038852832746,88.88525792459768 47.97987512347754,88.99750827008756 48.08092046173988,89.22791616711038 48.27795887136017,89.80097783990277 48.44973594642943,90.11409152741908 48.46489274717169,90.24406273117711 48.550781284691766,90.49218873484642 48.59625168691855,90.74622135842583 48.64677435604972,90.82302169159084 48.70740155901876,90.87028338258824 48.77813329582568,90.90572962458828 48.91959676941042,90.91754503358607 48.9650671716081,90.87028338258824 49.05095570915728,90.76394452161912 49.05095570915728,90.7284981896446 48.97011943854159,90.6930518351619 48.91454450250603,90.62806679350615 48.79834236347233,90.27950937062633 48.7326628935989,90.14363046392828 48.46994501410518,89.76553089672598 48.25774980371352,89.36970516969814 47.9950319242198,88.83208662956531 47.85862071753945,88.4835179972215 47.722209510888206,88.05223515261605 47.54538016888546,87.70956969604958 47.2574009548116,87.04195681911733 47.10583294738899,86.474775006649 47.095728413551114,86.02575198591876 47.07046707900008,85.99621087111154 47.04520574444905,85.99621087111154 47.0249966767733,85.83668858115198 47.07046707900008,84.82637016095032 47.13614654887351,84.38915067414564 47.39886442836723,83.5383353724319 47.39381216146285,83.40834855958019 47.434230296785245,83.40834855958019 47.43928256368963,83.37289755808888 47.40896896220511,83.37289755808888 47.39381216146285,83.39653156160057 47.42412576294737,83.37880605991086 47.494857499725185,83.14246549976815 47.54538016888546,82.8352212758291 47.6060073718545,82.68750710477616 47.62116417256766,82.5338839522592 47.752523112343624,82.29753981525573 47.77778444692376,82.10255514898381 47.86872525134822,81.76576184864098 48.02534552567522,81.28124862445475 48.12639086393756,81.06262542697004 48.2678543375514,80.60174128668586 48.36384740888025,80.36538896948332 48.32848154049134,80.2708477623928 48.30827247284469,80.25312126825156 48.29311567210243,80.25903010026013 48.26280207061791,80.2235770988118 48.05565912715974,79.8749547186344 48.06071139406413,79.83359259684585 48.29311567210243,79.4849677810198 48.672035690629855,78.95316302052743 48.94991037089494,78.62225972351007 49.10147837828845,78.39771708331682 49.389457592362305,78.10226486472311 49.51071199827129,77.92499278288597 49.93005015212111,77.65317449718714 50.03614775731694,77.60590161672008 50.17255896399729,77.564537813465 50.48579951265128,77.39317315916196 50.561583516333485,77.3045360625365 50.561583516333485,77.25135373699231 50.697994723013835,77.1686255743225 51.24363954967703,76.78452892704445 51.76402304178919,76.47724970602576 52.122733992669964,76.22315214919217 52.35008600377478,76.11678538655906 52.461235875904094,75.9985998569864 52.673431086266646,75.87450478157916 52.89573083046707,75.66176972462927 53.08266470627859,75.51994590281902 53.193814578378806,75.45494319737918 53.24433724748087,75.44312451552469 53.23928498060559,75.46085253737328 53.23928498060559,75.42539648805541 53.23928498060559,75.43721517366794 53.426218856388004,75.27766270681241 53.6232572660374,75.14765665581581 54.00722955146921,74.98810336112365 54.350783701607725,74.92310003620514 54.401306370738894,74.86400603875518 54.401306370738894,74.94673761766535 54.401306370738894,74.92310003620514 54.431619972223416,74.87582484325321 54.44677677296568,74.89946244473686 54.42151543838554,74.87582484325321 54.4366722391278,74.86991544132252 54.46193357370794,74.89355304530909 54.4770903744502,74.88173424456545 54.23458156257402,74.33215724590627 54.00217728456482,73.94804107650634 53.85060927714221,73.64665576940388 53.77987754033529,73.45164087981175 53.66872766823508,73.27435402515039 53.577786863810616,73.06751864947364 53.55252552923048,73.0261514823469 53.4666369917104,72.94932666202294 53.375696187256835,72.80158632567327 53.15339644305641,72.21062106861791 52.2237793309323,70.5854343385472 52.147995327221,70.39040874988859 52.07726359044318,70.01217536212789 52.016636387474136,69.49210026724904 51.99642731982749,69.06067065740717 51.940852383791935,68.69424836875987 51.935800116858445,68.57013704796191 51.96106145140948,68.4223851155657 51.940852383791935,68.19780142890886 52.02168865437852,67.83137347294542 52.04189772205427,67.43539216958015 52.17325666180113,66.43656117143837 52.19851799638127,66.00510793114154 52.30966786848148,64.89986317417424 52.334929203032516,64.33836680724926 52.42081774055259,63.9364501473392 52.441026808228344,63.59363659000519 52.47639267661725,63.56408359847046 52.48144494352164,63.52861998797016 52.461235875904094,62.55336186295608 52.54712441342417,62.13370008856509 52.56228121416643,61.53080018151741 52.754267356853234,60.951537268872926 52.89067856356269,60.73874530009198 53.112978307763115,60.466843269550736 53.41106205564574,60.129919349106785 53.81019114184892,59.727972360211425 53.97691594995558,59.53290880676286 54.02238635221147,59.544730859732226 54.96716026507784,58.44526921200304 55.23493041147594,58.15562248207789 55.467334689514246,57.92508625441042 55.73005256900797,57.765483692313865 55.86141150878393,57.6354368224529 55.86141150878393,57.60588067337085 55.94224777939962,57.552679565545986 56.04834538459545,57.351697144538775 56.19991339198896,57.17435911263965 56.639460613485426,56.683720952190924 57.06385103423963,56.27583774919913 57.47308465425158,55.80292595248466 57.85705693968339,55.41277070049546 58.06925215004594,55.164488664064265 58.22587242437294,55.010789706477226 58.665419645869406,54.455105324665055 58.81698765326291,54.32505073336506 58.88771939006983,54.212730614901375 58.912980724620866,54.19499583865763 58.87256258932757,54.21864220573116 58.68562871351605,54.50239782810604 58.60479244290036,54.57924806063966 58.36228363105329,54.8157096501418 58.30165642808424,54.84526727830598 58.25618602585746,54.82753270327885 58.114722552272724,54.69747898073547 57.90757960881456,54.425547489649034 57.52865959031624,53.82256423458239 57.47308465425158,53.68659652105271 57.30635984608671,53.37919003332354 57.20026224089088,52.98901781934546 57.1547918386932,52.758460227509204 57.073955568048405,51.75936631060904 57.079007834981894,51.50515612498202 57.0385896996886,51.138618467663036 57.0385896996886,50.93761292264753 57.06385103423963,50.75434252929699 57.04364196656388,50.51195172872394 57.073955568048405,50.281383891506266 57.04364196656388,50.1276714701562 57.013328365108464,49.56602632655995 56.96280569594819,49.06940906415184 56.99311929746182,48.81518661036171 56.98301476362394,48.60234831541675 56.89712622607476,47.91653050280729 56.826394489296945,47.07698341602736 56.8061854216503,46.077787653670384 56.75566275251913,45.805814107701735 56.70008781645447,45.267775573960535 56.558624342869734,44.83024590358764 56.52831074138521,44.63513021330073 56.58388567744987,44.54052842056626 56.71019235026324,44.481402218563744 56.93249209446367,44.41045069334723 57.24068037621328,44.3631496263406 57.69033213151852,44.34541171585079 57.90757960881456,44.3631496263406 58.54416523993132,44.30993587796547 59.4030506152485,44.191682921875326 59.59503675799351,44.156206986121106 59.6000890248979,44.138469009765686 59.71123889699811,44.14438166916443 60.25183145678602,44.09708037632299 60.76716268196469,44.02612836174376 61.33806884320802,43.990652320593654 61.41890511379461,44.00247767015753 61.4997413844394,43.97882696851957 61.575525388121605,43.93743821650423 61.651309391862014,43.8487479300893 61.67151845950866,43.754144802325754 61.67657072641305,43.10965672025486 61.63615259111975,42.90270942471034 61.67657072641305,42.65437165552066 61.69172752718441,42.18725713833555 61.711936594801955,42.13995418407649 61.76245926396223,42.09856406614563 61.75235473012435,41.980306416928215 61.92413180519361,41.7615291041584 61.934236339031486,41.731964536546 62.02012487655156,41.7615291041584 61.96960220739129,41.73787745131631 61.96960220739129,41.70239995325392 61.81803419999778,41.684661195737135 61.78772059851326,41.54275093236356 61.82308646690217,40.839107203806634 61.79782513232203,40.3956297002951 61.80287739925552,40.02901896540061 61.81803419999778,39.7333633897324 61.83824326767353,39.72745026220946 61.85845233529108,39.70379774587127 61.88371366987121,39.425879926606285 61.79277286544675,38.87004012879697 61.79277286544675,38.56255190065713 61.75740699702874,38.33784789138008 61.75740699702874,37.98896355458055 61.727093395544216,37.740603881793504 61.711936594801955,37.303015097480966 61.67657072641305,36.86542287568227 61.69172752718441,36.63479856471531 61.67151845950866,36.63479856471531 61.69172752718441,36.557923582211515 61.70183206099318,36.26224958382227 61.646257124928525,35.901525180433964 61.631100324186264,35.29242785249153 61.60583898960613,35.11501961125032 61.615943523444,34.70697851193836 61.59068218889297,34.5" stroke="#ffcc00" stroke-linecap="round" stroke-linejoin="round" stroke-width="0.5"><title>2025-04-05 21.7km</title><desc>14084037830</desc></polyline><polyline fill="none" points="173.1586577112903,103.03865491673787 173.22024034158676,104.14866505900136 173.18944902642397,104.36489868925128 173.1155498700682,104.43697641300241 172.4504574626335,104.53067733947682 171.26807096062112,104.91989518849005 169.61149820516584,105.27307241711969 169.11267889963347,105.33794150433823 168.97719711292302,105.27307241711969 168.97719711292302,104.40814533267985 168.90945621958235,104.33606757835514 168.94024753471604,103.48554429905198 168.66928396135336,101.98629088189773 168.44142822918366,101.35198139321437 167.83791845210362,99.10301817960863 167.36373219868983,97.72621226762567 166.94497031255742,96.21962301738677 166.91417899739463,95.94569410664553 166.82180505193537,95.8663986893007 166.38456837669946,94.30209742712759 166.20597874876694,93.54516451882955 165.73795075836824,92.11778235220117 165.5963107086718,91.54826290747587 165.29455582011724,90.71199784667988 165.1529157703917,90.04874581594777 165.08517487705103,89.01780859545397 164.7033625690965,87.66242674063687 163.93973795318743,83.52401887038286 163.72419874707703,82.78138586820569 163.43476038463996,82.18294753438386 162.3940139322949,77.36640823646303 162.33858956501354,76.92655751640996 162.06146772860666,75.61419907277013 162.01835988741368,75.1671261120573 161.57496494910447,73.5735033579549 161.4887492666894,72.86681703001523 161.19315264117904,71.35246438675676 161.069987380557,71.07122374396567 161.10693695873488,71.06401243012078 161.01456301327562,70.56642992108391 160.5773263380397,68.66260226312443 160.41721149923978,68.15057888548472 160.1647227149224,67.55922313081828 160.1647227149224,67.40777753480506 160.10314008462592,67.26354331935727 159.8999174045748,67.16257918599149 159.63511209419812,67.1770026428203 159.58584598996094,67.2346964394601 159.11165973654715,67.40056583131809 158.80990484799258,67.59528155619046 158.39730122490437,67.69624504522653 156.90700157129322,68.30923442999483 156.63603799790144,68.37413886393188 156.45744836996892,68.47510119326034 156.15569348144345,68.52558230153227 155.78619769957731,68.74192948275595 155.49675933708204,68.80683350250911 155.3489610243414,68.67702540084429 155.05952266184613,68.18663699639 154.4252215696033,66.93180345943983 153.3352090130502,65.24423208510416 152.4176278213563,63.55661870358017 152.26982950861566,63.55661870358017 152.12818945889012,63.40516416636092 152.00502419826807,63.397952037106734 151.39535615814384,63.549406590434955 149.15374841471203,64.32109834615403 148.64877084610634,64.42206671107851 148.5563969006471,64.41485469001782 148.37164900969947,64.13358526947559 147.96520364962635,63.26813357920037 145.96992642746773,58.60892879203311 145.5696393304097,57.80832111300697 145.545006278262,57.67849194959126 145.20630181152956,57.527024277973396 145.02771218359703,57.54866253751243 143.2602906936081,58.19780711108615 142.5951982862025,58.37812394483626 140.20579223000095,58.68105514560011 139.54069982262445,58.695480407106515 139.1896788298327,58.7820319116654 138.54306121153058,58.861370693754 134.33080929802964,60.06586625089403 130.9622394198086,60.996270322517375 130.7651750028017,61.03954461968533 130.62353495307616,60.996270322517375 130.26635569724021,60.07307873467653 129.72442855048575,58.76760666858172 129.23792577101267,57.88044831854495 128.62209946787334,57.09425763665058 126.69456313902629,55.254968581219146 126.34970040922053,54.87267870784126 124.3913727652689,51.54017375646799 123.2520941044495,49.498753195861354 122.93802268983563,49.037080654496094 122.66705911644385,48.43113066988735 122.63626780128106,48.13536739972915 122.46383643642184,47.73139596900728 121.76179445083835,44.651034597860416 121.4046151950024,43.40297946383362 120.87500457430724,41.90961159928702 120.11753822144237,40.113197934799246 120.0559555911168,39.83904226136656 120.12369648445747,39.709178660297766 120.5116670554562,39.622602787902 120.67794015730033,39.54324147433363 121.1952342519362,39.247439395410765 121.54625524472794,38.95885075626575 121.78642750295694,38.64861659769667 121.79874402904534,38.28787741702399 121.52778045562445,37.94878083518415 121.26297514527687,37.43652533221757 121.02280288704787,36.28934754525835 120.86884631129215,35.906950631091604 120.62867405303405,35.60391758054902 119.93894859350985,35.084429196154815 119.56945281161461,34.9473413190135 119.30464750129613,34.918480677952175 118.8920438781497,34.788607640854025 118.59028898962424,34.66594954380707 118.35011673139525,34.5 118.2515845229209,34.514430411247304 118.16536884047673,34.709240662246884 117.88824700406985,34.990632257569814 117.72813216524082,35.22151679578383 117.05072323177592,35.892520516550576 116.82902576265042,36.22441237241583 116.6442778717028,36.34706764663861 116.74281008017715,36.39757269497204 116.81670923659112,36.35428265584051 117.38942769850837,35.7554342753283 117.51259295913042,35.71214382571634 118.30700889020227,36.5707325747353 118.86741082606022,37.57360817045992 119.46476234009606,39.002139130519936 119.64951023104368,39.59374413917976 119.58792760074721,39.67310539357277 119.00289261274156,40.0266225788655 118.88588561510551,40.04105181256455 118.78735340666026,39.997764102306974 118.88588561510551,40.048266428239 119.1322161364078,39.94726173872186 119.53250323346583,39.74525190779241 119.64951023104368,39.78853977940889 119.92047380443546,40.156485571249505 120.23454521904932,40.84186946187401 121.14596814769902,43.26590842342557 121.29992472345475,43.74204874050338 121.33071603864664,44.008974423937616 121.69405355749768,45.36522921490541 121.75563618779415,45.90628073026892 121.8849597114604,46.36797460644448 121.99580844602315,47.10379271826969 122.18055633697077,47.79632011138892 122.30987986063701,48.02716100268299 122.5438938558218,48.78460215283849 122.82717395527288,49.41940345169132 123.79402125120396,51.0280210208075 124.00340219427017,51.46803980254481 125.25352958965232,53.56710646680585 125.57375926731038,54.19464985461673 126.01715420556138,54.887104779954825 126.35585867229383,55.34152447955421 126.60218919353792,55.5939785516166 128.21565410777112,57.03655520903703 128.58514988966635,57.49817325451295 129.26255882313126,58.52958971445332 129.50888934437535,58.976772392808925 130.05081649118802,60.455339276755694 130.82059937011218,62.10696853847185 131.31941867561545,63.00849591765291 131.55343267082935,63.28255786457885 132.17541723701288,64.24176595394238 132.93904185289284,65.28029174169205 133.0067827462335,65.46780164678057 133.2777463196544,65.81397241677769 133.745774310024,66.61448555286916 134.09679530281574,67.4294126406603 134.4170249804447,67.93422981742333 135.3284479090944,69.63615717542416 135.7964758994931,70.63133219455631 136.06128120984067,71.31640795928251 136.83106408879394,72.28271358807251 137.25598423794145,72.86681703001523 137.93955143442145,73.42928225643118 138.77707520668628,73.99174281801243 141.209589104139,75.1671261120573 141.51134399269358,75.62862073209544 141.56676835997496,75.93147487001988 141.7145666727156,76.27038146862469 141.86236498548533,76.41459652888443 142.09637898067012,76.53717908902763 142.31807644979563,76.81839706634491 142.51514086680254,76.86887196450698 143.0447514874977,76.79676495565218 143.90690831188112,76.76792213063163 144.62126682358212,76.87608266115421 145.69896285404684,77.27266979757405 146.56111967845936,77.79183490787545 147.28779471619055,78.5056804465421 148.0575775951147,79.57282946463965 148.58102995276568,80.43807310133707 149.33849630565965,81.94501275429502 149.74494166573277,82.6227641733858 150.31766012765002,83.81962780356844 150.73642201378243,84.97321132042998 151.20445000418113,86.79727523131442 151.58010404909146,88.13825536912918 151.82027630732046,89.42153412791231 151.9372833049274,90.66153324608604 152.01734072429826,92.99007502105087 152.21440514133428,94.81392346716166 152.8302314444736,97.56762550009444 152.75633228808874,97.38020429715834 152.78096534023643,97.35857874045178 152.8363897075178,97.51716599636711 153.0642454396584,98.33172197234671 153.27362638272461,98.75701722651138 153.7847622143745,100.13380223354761 154.75160951030557,102.0223310158326 154.9178826121206,102.20253139859415 155.25658707888215,102.88008055795945 155.8231472777552,104.35769091268594 156.05716127294,105.74877761764947 156.0386864838365,106.13078089649207 155.92783774930285,106.36863090909901 155.92783774930285,106.55602730198007 156.0694777990284,106.83712092167116 156.10026911419118,107.02451602173824 156.0448447469098,108.21374210333306 155.95862906446564,108.76149983896903 156.11874390326557,108.84798749862966 156.08795258810278,108.86960939633718 156.14953521842835,109.2948386523276 156.38354921361315,110.1813249813058 157.1964399337594,111.99029777276883 157.6398348720395,112.7974732741277 157.76300013266155,113.12898900487198 157.91079844540218,113.2947462634911 158.21871159700095,114.08749277684547 158.95770316076232,115.4927934050429 159.0377605801914,115.5 159.15476757776923,115.42793401594827 159.15476757776923,115.16128921024938 158.93307010861463,114.57034293771721 158.3357185945788,113.56139839602838 158.3234020685195,113.38122815089446 158.39730122490437,113.2947462634911 160.3617871319293,112.70378375262953 160.66970028349897,112.68216307547846 160.97145517202443,112.54523196034279 162.24621561955428,112.1704717073153 162.60955313840532,112.09840219085163 162.874358448782,112.12002305381611 162.99752370940405,112.22092032335058 163.23769596760394,112.19209254736779 163.90278837500955,111.96146989888075 164.15527715929784,111.80291637381742 164.29691720902338,111.64436247864069 164.4631903108675,111.56508539226343 164.962009616429,111.41373797040433 165.23297318979166,111.39932391262118 165.54088634139043,111.2840113403945 166.11360480330768,111.1686985723718 166.5385249524843,110.9813149068068 166.60626584579586,110.85158745088847 166.7232728434028,110.79393072426319 167.24672520108288,110.65699580241926 167.73322798058507,110.58492468000622 168.43526996616856,110.60654602477007 168.49685259646503,110.44078220578376 167.09276862529805,110.13808201418578 166.9511285755725,110.32546800615091 166.85259636706905,110.56330332838115 166.00891433176002,110.71465264527069 165.56551939347992,110.837173273816 165.31303060922073,111.01014319669775 165.09749140311033,111.08942093080987 165.01743398371036,111.21194088331686 164.2230180526385,111.34887468637316 163.37933601732948,111.67319048711215 162.70192708386458,111.86057224394608 162.54181224506465,111.86777922425972 162.4371217735461,111.9398489854284 162.11073383287294,112.01191867014859 161.069987380557,112.11281610027072 160.65738375743967,112.37947287268616 159.17940062988782,112.81188703521912 158.7914300588891,112.8335076710573 158.2987690164009,112.99205879047076 158.15712896667537,112.99926565074566 158.04012196906842,112.94881761280703 157.95390628662426,112.8335076710573 157.68294271326158,112.06236740393797 157.3935043507663,111.64436247864069 156.99321725373738,110.90203704652231 156.9501094125153,110.62816736262175 157.11022425131523,110.32546800615091 157.12254077740363,110.15249633961503 157.01169204284088,109.72727245341957 156.81462762583396,109.25880237796082 156.697620628227,109.14348617148062 156.5190310003236,109.10744981679454 156.32196658328758,108.91285317110305 156.10642737717717,108.90564587722474 156.22959263782832,108.57410953183717 156.0756360620435,108.71104865330562 156.0510030098958,108.63897546589578 156.14953521842835,108.66780475003179 156.54366405241308,108.64618278806302 158.15712896667537,108.42275544477161 159.4749972553691,108.34347459788114 159.4934720445017,108.24977893222967 159.36414852083544,107.51462383870239 159.15476757776923,106.78666830638394 159.17324236684362,106.57764992939337 159.35183199477615,106.48395182742388 160.46031934043276,106.38304603458528 161.16236132601625,106.37583847222413 162.49254614079837,106.22447948575427 163.91510490106884,106.16681883073034 164.6725712539337,106.18123399907927 165.8241664408415,106.05149737382453 166.20597874876694,105.95059093838063 167.01886946894228,105.86409958863806 167.56695487871184,105.75598524657835 168.60770133102778,105.72715472628624 169.0079884280858,105.5974172335118 170.01178530219477,105.43164118756249 172.10559473291505,104.92710290538525 173.02317592460895,104.84781797734468 173.1340246591426,104.79015615336539 173.1032333439798,104.77574068971444 173.23255686767516,104.69645558494085 173.31877255009022,104.55950836774718 173.3557221282972,103.20443680496828" stroke="red" stroke-linecap="round" stroke-linejoin="round" stroke-width="0.5"><title>2025-01-05 41.7km</title><desc>13269696066</desc></polyline><polyline fill="none" points="84.20486364373937,252.23905305609514 84.1086140931584,252.01373568325653 84.06736428575823,251.9815474597708 83.9573647993384,251.91717099236848 83.79236556973774,251.86888862386695 82.99486929317936,251.8206062399404 82.29362256726017,251.88498274837912 81.88112449325854,251.86888862386695 81.60612577712163,251.8206062399404 81.42737661174033,251.7401355659822 81.12487802410033,251.5309116136632 80.86362924386049,251.45044078596402 80.72612988582114,251.3538757362403 80.54738072043983,251.11246284279332 80.40988136240048,250.77448414609535 80.2861319402,250.37212757224916 80.27238200441934,248.9558239361504 80.02488315990195,247.52341248061566 80.01113322406309,246.9761955422291 79.94238354510162,246.62211294109875 79.76363437966211,245.97832427451795 79.76363437966211,245.5437653787376 79.66738482902292,244.9804464372428 79.63988495746162,244.5458846804977 79.51613553526113,243.90208719509246 79.3098864982021,243.1134315487434 79.21363694762113,242.21210578504542 79.06238765374292,241.64877446077298 78.81488880934194,240.47381953228614 78.64988957968308,239.10570984974038 78.48489035002422,238.34922036985517 78.33364105626242,236.9649958005757 78.34739099204307,236.69136851694202 78.40239073522389,236.36945343311527 78.34739099204307,235.8061003909679 78.16864182666177,235.43589582302957 77.96239278966095,234.5023324618669 77.81114349578274,233.97116453423223 77.75614375260193,233.71362789912382 77.6736441377434,232.6995731438219 77.19239638466388,231.5084525423881 76.79364824638469,230.31732257816475 76.31240049336338,229.1905693996814 76.0374017773429,228.16038773297623 75.87240254768403,227.8062611674104 75.3361550514237,226.42194028805534 74.73115787608549,224.9410248802742 74.59365851810435,224.58689079037867 74.53865877486533,224.12007640731463 74.40115941682598,223.60496921197046 74.34615967364516,223.5244835545309 74.37365954526467,223.5244835545309 74.34615967364516,223.55667782264936 74.24991012306418,223.5244835545309 74.22241025138646,223.54058068945596 73.85116198472679,223.74984328768915 73.71366262674564,223.79813461545564 73.05366570822662,223.92691141428077 72.46241846872726,223.94300850645232 72.09117020206759,224.03959102346562 71.43117328354856,224.0717851821246 71.0874248885084,224.1844646836107 70.31742848362774,224.248852932491 69.98743002436822,224.31324115407187 68.84618535282789,224.39372639254725 68.04868907626951,224.55469674119377 66.90744440467097,224.66737588350952 66.67369549605064,224.65127886833216 66.37119690841064,224.57079376663023 66.23369755037129,224.50640565456706 66.05494838493178,224.31324115407187 65.95869883429259,224.0717851821246 65.60120050347177,223.08986026540515 65.39495146647096,222.268901762116 65.20245236519258,221.09379655576777 65.02370319981128,220.2567297543137 64.77620435535209,219.22648734196264 64.73495454795193,218.71136350858433 64.69370474049356,218.40550790379348 64.54245544673176,217.89038127886306 64.47370576771209,217.77769709618588 64.39120615291176,217.55232847938896 64.36370628135046,217.0211011275096 64.21245698747225,216.26450138022483 64.26745673065307,216.4254803663498 64.26745673065307,216.50596979523834 64.2262069232529,216.53816555482626 64.17120718001388,216.45767614299257 64.11620743683307,216.29669719113735 64.01995788625209,215.5239958408929 63.854958656651434,214.9444672417594 63.70370936271502,214.09126832506445 63.52496019733371,213.30245750433824 63.41496071097208,212.90000142154167 63.37371090351371,212.62633067446586 63.05746238009306,210.83940952530247 62.80996353569208,209.76080727833323 62.71371398499468,209.0202699456422 62.50746494799387,208.26363023590238 62.3149658467737,207.13671302321018 62.177466488676146,206.6698448645766 61.95746751589468,205.65560907835606 61.434969955415,203.49832307409088 60.77497303689597,200.4555316244514 60.554974064114504,199.68274945837038 60.34872502705548,198.66846688115038 60.142475989996456,197.9600750204845 60.004976631957106,196.97798082324152 59.78497765917564,196.20518091174017 59.66122823697515,195.48067741311388 59.48247907147743,194.74007025404717 59.3999794566771,194.11216134720598 59.317479841876775,193.72575457200583 59.20748035545694,193.04954034279217 59.0974808690371,192.71143209582078 58.946231575275306,191.9547109027626 58.7949822813971,191.40729321436083 58.73998253821628,190.97257775785693 58.40998407895677,189.2337034518132 58.20373504195595,188.68627592634584 58.13498536293628,187.86513092725363 58.05248574807774,187.43040530136204 57.83248677523807,186.60925349150784 57.77748703205725,186.2228275693633 57.694987417256925,186.06181647743506 57.6399876740179,185.691490316196 57.406238765397575,185.22455603924755 57.30998921475839,185.1440499839082 57.28248934313888,184.9025315610197 57.17248985677725,184.7093165452825 57.06249037035741,184.61270894494373 56.8837412049179,184.53220256428176 56.704992039478384,184.5 56.40249345189659,184.5 55.12374942220049,184.74151906502084 54.40875276050065,184.83812658312672 53.707506034581456,184.99913897640363 52.70376072108047,185.17625241118367 51.01251861738274,185.5626810043468 49.91252375318436,185.7397937799251 49.2937766421237,185.91690634829865 47.20378640014678,186.25502976722782 45.773793076805305,186.78636504284805 44.63254840520676,187.23719351144973 43.2850546966074,187.72022252397437 42.28130938304821,188.07444282052165 41.18131451884983,188.41256142147176 40.59006727935048,188.63797340264136 39.68257151637226,188.8794858672045 39.325073185609654,189.0404939629516 38.84382543253014,189.18540110271715 38.43132735841209,189.37861040669668 36.877584612811916,189.94213613515603 36.19008782267338,190.10314310090325 35.44759128935402,190.3607538901124 34.251346874574665,190.85987354691315 33.50885034131352,191.13358362796134 33.06885239557596,191.26238820086292 32.628854449954815,191.35899155856168 32.50510502769612,191.48779593968356 32.53260489931563,191.43949430959765 32.35385573387612,191.53609755434445 32.037607210397255,191.6649017847958 31.501359714136925,191.84200742281973 31.19886112655513,191.9869118815841 30.126366133918054,192.26061992550967 29.3838696005987,192.37332309391059 28.03637589199934,192.66313085603178 27.390128909319174,192.8563357226376 26.51013301796047,193.01733958988916 26.028885264880955,193.1461425604357 25.83638616366079,193.226644361348 25.671386934060138,193.38764783482475 25.60263725509867,193.51645049033687 25.616387190821115,193.87065722825355 25.69888680562144,194.17656238058407 25.781386420479976,194.85277157710516 26.028885264880955,195.22307533377898 26.468883210560307,196.31788114448136 26.78513173403917,196.83308114024112 26.881381284678355,197.1389803084312 26.96388089947868,197.5736780634761 27.07388038589852,197.92787531172507 27.21137974387966,198.55576839769492 27.33512916608015,198.7650655145262 27.390128909319174,198.97436234206543 27.34887910191901,199.13535970487283 27.225129679660313,199.24805775708228 26.262634173501283,199.6666497879487 25.753886548918672,199.94034395186463 25.616387190821115,199.97254323273955 25.547637511859648,200.1335395344504 25.313888603181113,200.2784360597143 25.135139437799808,200.4555316244514 25.066389758721925,200.64872654984356 25.093889630341437,200.74532392014225 25.203889116761275,200.87412031802523 25.87763597111916,201.4376032708824 26.056385136500467,201.614697480225 26.207634430320468,201.84008981079387 26.8951312204008,202.59676161027164 27.170129936537705,202.95094711106503 27.51387833157787,203.54662085823657 27.967626213037875,204.20668903089245 28.39387422282016,204.9311507872335 29.41136947221821,206.50885551070678 29.700118124077562,207.0723175006715 29.892617225297727,207.32989942657878 30.098866262298543,207.53918441876885 30.167615941318218,207.5552832523681 30.167615941318218,207.53918441876885 30.167615941318218,207.5713820842211 30.607613887055777,208.23143271755544 30.992612089496106,209.10076330931042 31.432610035175458,209.97008891188307 32.216356375894975,211.25796952279052 32.46385522023775,211.72482354025124 32.766353807994165,212.4653476511885 32.903853165975306,212.90000142154167 33.39885085483547,213.8336978964653 33.962598222715314,215.16983973818424 34.11384751659352,215.60448574880138 34.30634661781369,216.26450138022483 34.402596168394666,216.74743782536825 34.636345077014994,217.4879373844742 34.71884469187353,217.89038127886306 34.85634404991288,218.22843332405319 35.13134276593337,219.1781945569819 35.37884161033435,219.8381946192094 35.54384083999321,220.40160703161382 35.73633994121337,221.4801335196389 35.80508962023305,221.76988559610618 36.052588464692235,222.52645784987544 36.38258692389354,224.00739685799635 36.57508602517191,224.73176392722235 36.726335318991914,225.68148439345532 36.93258435599273,226.48632758614258 37.001334035012405,227.19458605932596 37.015083970851265,228.36964395090763 37.22133300785208,229.8022364504577 37.276332751032896,231.8303779525595 37.37258230167208,232.53861144754046 37.37258230167208,233.06978439653176 37.31758255849127,234.0033565828926 37.38633223751094,234.42185259253893 37.441331980749965,234.5506203630357 37.427582044911105,234.64719611908367 37.33133249421371,234.7276758687076 37.45508191647241,234.74377181354794 37.45508191647241,234.71157992220833 37.49633172387257,234.77596369801904 37.578831338731106,235.21055346931098 37.537581531272735,235.54856687421852 37.537581531272735,235.886579525235 37.578831338731106,236.2406872080901 37.537581531272735,236.6430812979379 37.565081402950455,237.09376141011307 37.71633069665404,237.9951176137547 37.812580247351434,238.34922036985517 37.77133043995127,238.79989540834504 37.78508037579013,239.3793327742751 38.01882928441046,240.18410321844567 38.073829027533066,240.81182119838195 38.14257870661095,241.08544104269822 38.67882620287128,242.7110546379845 38.912575111491606,243.66066243313253 38.96757485473063,243.82161231718783 39.16007395595079,244.6424540674634 39.352573057229165,245.2540587560652 39.44882260781014,245.55986017484975 39.6413217089721,245.96222952278913 39.83382081025047,246.6060182577785 39.95757023245096,246.75087034630997 40.04006984725129,247.024479469168 40.150069333729334,247.28199348664202 40.37006830656901,247.8613984262629 40.49381772882771,248.42470666088047 40.6450670225895,248.89144618375576 40.713816701609176,249.2777122881962 40.85131605959032,249.82492091793392 40.9200657386682,250.0985244919866 41.03006522502983,250.35603328711295 41.51131297816755,251.36996991543856 42.24005957564805,252.64140467457764 42.57005803490756,253.30125901709835 42.886306558328215,253.62313814193476 42.96880617312854,253.75188960050582 43.161305274348706,254.31517594600155 43.76630244968692,255.13596087387123 43.862552000326104,255.26471104761004 43.986301422526594,255.36127360614773 43.986301422526594,255.40955486231542 43.94505161512643,255.39346111200575 43.94505161512643,255.40955486231542 44.28880001010839,256.1176781866234 44.385049560747575,256.4234576904564 44.46754917560611,256.6004876476363 44.78379769902676,257.11548271127685 45.11379615822807,257.7914110774145 45.41629474592628,258.51561669695366 45.41629474592628,258.54780353307433 45.375044938526116,258.531710115858 45.375044938526116,258.563896948559 45.56754403974628,259.06279198179254 45.87004262738628,260.14104338063044 46.00754198542563,260.8330514323752 46.11754147184547,261.26756650173047 46.24129089404596,262.00784856663086 46.28254070144612,262.71594107255805 46.42004005948547,263.71370217257936 46.42004005948547,263.955095000696 46.36504031630466,264.1321161636879 46.14504134346498,264.45397229419905 46.10379153606482,264.5827145551302 46.10379153606482,264.90456972915854 46.21379102242645,265.1459606613207 46.40629012370482,265.40344389870006 46.585039289086126,265.48390732069674 46.79128832614515,265.5 47.05253710638499,265.4678146396909 47.28628601500532,265.3873512091377 47.74003389646532,265.1620533763926 48.647529659443535,265.065497059928 49.23877689894289,264.90456972915854 49.81627420266159,264.8562914965587 50.50377099268371,264.824105999709 51.59001592115965,264.8562914965587 52.58001129887998,264.74364222752047 53.44625725434162,264.7597349853895 54.31250320991967,264.6953639437852 54.656251604959834,264.61490010327543 55.01374993578065,264.5827145551302 55.742496533319354,264.5988073300832 56.25124415807659,264.55052900013106 57.70873735303758,264.55052900013106 58.27248472091742,264.45397229419905 59.331229777715635,264.38960112279165 60.19747573323548,264.2447658870951 60.60997380723711,264.21258026038413 61.29747059743386,264.21258026038413 62.14996661711484,264.14820898644393 62.7687137281755,264.1643018074974 64.00620795047143,264.1160233392293 66.08244825649308,264.14820898644393 66.7149453034508,264.1160233392293 67.47119177260902,263.9872806820349 68.28243798488984,263.90681646580924 68.28243798488984,263.9229093124886 68.30993785650935,263.84244506209507 68.35118766390951,263.8102593499498 68.85993528860854,263.6493306868506 69.07993426139001,263.61714493377076 70.2074289972079,263.5044947440765 70.83992604404921,263.5205876334221 71.19742437492823,263.5044947440765 71.63742232060758,263.40793737200147 71.98117071564775,263.2791941135365 72.46241846872726,263.15045074578666 72.94366622186499,263.1826365980087 74.1261607008637,263.13435781713633 74.34615967364516,263.0056143263937 74.74490781192435,262.87687072638073 75.32240511558484,262.7964059208025 75.73490318964468,262.7642199866532 77.01364721928257,262.57110423814447 77.6736441377434,262.3458022206323 79.50238559948048,262.00784856663086 79.84613399446243,261.91129024140537 80.18988238956081,261.7825457121362 81.88112449325854,261.4767770169274 83.28361794503871,261.3319389987155 83.73736582649872,261.2353802430007 84.34236300183693,261.15491456630116 84.5348621030571,261.0583556978527 84.76861101167742,260.8652377765102 84.85111062647775,260.75258554215543 84.89236043387791,260.6077468320873 84.93361024133628,259.80308481212705 84.82361075491644,258.7087376112322 84.83736069063889,258.27421520817734 84.82361075491644,257.82359806731984" stroke="#4dd2ff" stroke-linecap="round" stroke-linejoin="round" stroke-width="0.5"><title>2025-01-04 16.8km</title><desc>13261684153</desc></polyline></svg>