<?xml version="1.0" encoding="utf-8" ?>
<svg baseProfile="full" height="300mm" version="1.1" viewBox="0,0,200,300" width="200mm" xmlns="http://www.w3.org/2000/svg" xmlns:ev="http://www.w3.org/2001/xml-events" xmlns:xlink="http://www.w3.org/1999/xlink"><defs /><rect fill="#222222" height="300" width="200" x="0" y="0" /><text fill="#FFFFFF" style="font-size:12px; font-family:Arial; font-weight:bold;" x="10" y="20">Over 10km Runs</text><text fill="#FFFFFF" style="font-size:4px; font-family:Arial" x="10" y="280">ATHLETE</text><text fill="#FFFFFF" style="font-size:9px; font-family:Arial" x="10" y="290">shellj</text><text fill="#FFFFFF" style="font-size:4px; font-family:Arial" x="120" y="280">STATISTICS</text><text fill="#FFFFFF" style="font-size:3px; font-family:Arial" x="120" y="285">Number: 2</text><text fill="#FFFFFF" style="font-size:3px; font-family:Arial" x="120" y="290">Weekly: 2.0</text><text fill="#FFFFFF" style="font-size:3px; font-family:Arial" x="141" y="285">Total: 58.5 km</text><text fill="#FFFFFF" style="font-size:3px; font-family:Arial" x="141" y="290">Avg: 29.2 km</text><text fill="#FFFFFF" style="font-size:3px; font-family:Arial" x="167" y="285">Min: 16.8 km</text><text fill="#FFFFFF" style="font-size:3px; font-family:Arial" x="167" y="290">Max: 41.7 km</text><polyline fill="none" points="137.54487694837735,127.38487322231958 137.62698712211568,128.86488674533757 137.58593203523196,129.15319825233746 137.4873998267285,129.2493018840105 136.6006099501974,129.37423645264062 135.0240946141421,129.89319358465582 132.81533094021142,130.36409655615716 132.15023853280582,130.45058867245098 131.96959615053493,130.36409655615716 131.96959615053493,129.21086044357799 131.87927495944314,129.11475677114504 131.92033004629775,127.98072573207173 131.55904528178507,125.98172117586364 131.25523763889214,125.13597519095492 130.45055793612846,122.13735757281393 129.818309598224,120.3016163568318 129.25996041673352,118.29283068986115 129.2189053298207,117.92759214219404 129.09574006922776,117.8218649190676 128.51275783558958,115.73612990284164 128.27463833169895,114.72688602511334 127.65060101114796,112.82370980294218 127.46174761155271,112.06435054330359 127.05940776015632,110.94933046223741 126.87055436053197,110.06499442126369 126.78023316941108,108.690411460615 126.27115009212866,106.88323565418978 125.25298393759294,101.36535849385109 124.96559832943603,100.37518115760759 124.57968051283387,99.57726337917848 123.19201857640292,93.15521098195313 123.11811942001805,92.5687433552157 122.74862363812281,90.81893209702685 122.69114651653217,90.2228348160861 122.09995326548233,88.09800447728048 121.98499902221374,87.15575604002515 121.59087018822902,85.1366191823472 121.42664984072326,84.76163165862818 121.47591594498954,84.7520165734968 121.35275068436749,84.08857322811673 120.76976845070021,81.55013635083742 120.55628199895727,80.86743851398205 120.21963028656319,80.0789641744268 120.21963028656319,79.87703671307827 120.13752011282486,79.68472442581697 119.86655653940397,79.55010558132926 119.51348279227386,79.569336857101 119.44779465327156,79.64626191928983 118.8155463153671,79.86742110843625 118.41320646397071,80.12704207492789 117.86306829986279,80.2616600603069 115.87600209502853,81.07897924000281 115.51471733051585,81.16551848524978 115.27659782662522,81.30013492434955 114.87425797525793,81.36744306871697 114.38159693274065,81.65590597700793 113.99567911610939,81.742444670017 113.79861469910247,81.56936720113299 113.41269688247121,80.91551599519153 112.56696209279471,79.24240461259615 111.11361201739055,76.9923094468104 109.89017042843625,74.7421582714378 109.69310601148754,74.7421582714378 109.50425261183409,74.54021888848365 109.34003226432833,74.53060271614231 108.52714154418209,74.73254212058237 105.53833121960633,75.76146446154598 104.86502779481816,75.89608894810226 104.74186253419612,75.88647292002133 104.49553201292292,75.5114470259723 103.95360486616846,74.35751143893867 101.29323523660423,68.14523838938476 100.75951910723234,67.07776148401899 100.72667503770208,66.90465593279077 100.27506908203941,66.70269903730514 100.03694957814878,66.731550050019 97.68038759144838,67.59707614812214 96.79359771494637,67.83749859311501 93.6077229733346,68.241406860805 92.72093309680349,68.26064054280869 92.2529051064048,68.3760425488872 91.39074828202138,68.48182759167685 85.77441239735344,70.08782166786114 81.28298589304904,71.32836043003044 81.02023333706893,71.38605949291377 80.83137993744458,71.32836043003044 80.35514092963422,70.09743831290689 79.63257140063797,68.35680889144714 78.98390102799749,67.17393109139812 78.16279929046868,66.12567684887472 75.59275085202535,63.67329144162795 75.13293387898011,63.16357161045744 72.52183035365306,58.72023167529551 71.0027921392466,55.99833759448666 70.58403025311418,55.38277420600207 70.2227454885724,54.57484089319041 70.18169040171779,54.18048986631766 69.95178191520972,53.64186129200971 69.01572593444143,49.53471279714722 68.53948692666017,47.87063928511634 67.83333943239995,45.87948213238269 66.8233842952468,43.48426391306566 66.74127412147936,43.118723015162686 66.83159531260026,42.94557154706854 67.34888940723613,42.83013705054327 67.57058687639073,42.72432196578302 68.26031233591493,42.32991919388587 68.72834032628452,41.94513434169494 69.04857000394259,41.53148879693617 69.06499203870771,41.05050322270836 68.70370727416594,40.5983744469122 68.35063352700672,39.91536710962828 68.03040384940687,38.385796727015986 67.82512841504649,37.875934174793656 67.50489873735933,37.4718901074084 66.58526479135617,36.77923892821127 66.09260374880978,36.59645509202528 65.73953000170877,36.55797423727199 65.18939183754264,36.38481018781022 64.78705198617536,36.22126605841186 64.4668223085173,36.0 64.33544603054179,36.01924054833944 64.22049178730231,36.27898754966736 63.85099600543617,36.65417634343612 63.63750955366413,36.96202239438571 62.73429764233879,37.856694022077136 62.43870101685752,38.29921649656171 62.19237049561343,38.462756862187234 62.32374677358894,38.53009692663181 62.422278982092394,38.47237687445886 63.18590359800146,37.67391236710682 63.35012394550722,37.61619176762906 64.40934518692666,38.76097676632344 65.1565477680706,40.09814422728232 65.95301645345171,42.00285217403143 66.1993469746958,42.79165885224211 66.11723680098657,42.8974738580946 65.33719015031238,43.368830105166126 65.18118082013098,43.388069083419396 65.04980454218457,43.33035213641415 65.18118082013098,43.397688570992614 65.50962151522981,43.26301565163885 66.0433376446017,42.99366921039473 66.1993469746958,43.05138637255004 66.56063173923758,43.54198076167086 66.97939362537,44.455825949167775 68.19462419691263,47.68787789790076 68.399899631273,48.32273165400693 68.44095471815672,48.67863256525743 68.92540474332054,50.486972286547825 69.00751491705887,51.208374307025224 69.1799462819472,51.823966141928395 69.32774459468783,52.80505695769534 69.57407511596102,53.728426815192506 69.74650648084935,54.036214670253685 70.05852514109574,55.046136203782225 70.43623194034444,55.89253793559328 71.72536166827194,58.03736136107909 72.00453625901719,58.62405307006702 73.67137278622249,61.42280862241023 74.09834568973747,62.259533139491396 74.68953894072911,63.182806373275525 75.14114489636268,63.788699306074705 75.4695855913742,64.12530473549123 77.62087214368512,66.04874027871847 78.1135331862024,66.66423100602697 79.01674509749864,68.03945295260928 79.34518579251016,68.63569652375008 80.06775532156462,70.60711903568154 81.0941324934538,72.8092913846267 81.7592249008012,74.01132789021358 82.0712435611058,74.37674381944817 82.90055631598807,75.65568793859711 83.91872247052379,77.04038898892759 84.00904366164468,77.2904021957147 84.37032842618646,77.75196322237753 84.99436574667925,78.81931407048978 85.46239373707795,79.90588352089253 85.88936664059293,80.57897308990505 87.10459721213556,82.84820956724434 87.72863453262835,84.1751095927466 88.08170827975846,85.08854394571244 89.10808545170585,86.37695145076577 89.6746456505789,87.15575604002515 90.5860685792286,87.905709675244 91.70276694223867,88.65565709069051 94.94611880549928,90.2228348160861 95.34845865689567,90.83816097612726 95.42235781330965,91.24196649336227 95.61942223025835,91.69384195816383 95.81648664729437,91.88612870519137 96.12850530754076,92.04957211871078 96.42410193305113,92.42452942179807 96.68685448906035,92.4918292860093 97.39300198332057,92.39568660753866 98.5425444158609,92.3572295075137 99.49502243142342,92.50144354821532 100.93195047206245,93.03022639676783 102.08149290460278,93.72244654384122 103.05039295490133,94.67424059539917 104.07677012681961,96.09710595286015 104.77470660369727,97.25076413511852 105.78466174085042,99.26001700573397 106.32658888763399,100.16368556451926 107.09021350351395,101.7595037380961 107.64856268500444,103.29761509391392 108.27260000555543,105.72970030842407 108.77347206542618,107.51767382551043 109.09370174308424,109.22871217055217 109.24971107320744,110.88204432812199 109.35645429906435,113.98676669473934 109.61920685510268,116.41856462288706 110.44030859263148,120.09016733346652 110.34177638409892,119.84027239621355 110.37462045362918,119.8114383206048 110.44851961001405,120.022887995161 110.75232725287788,121.10896262980532 111.03150184362312,121.67602296869154 111.71301628582296,123.51173631140409 113.00214601375046,126.02977468778408 113.22384348284686,126.27004186479462 113.67544943848043,127.17344074395078 114.43086303700693,129.14358788358368 114.74288169725332,130.9983701568708 114.71824864513474,131.50770786199428 114.570450332365,131.82484121213201 114.570450332365,132.07470306930918 114.75930373201845,132.4494945622355 114.80035881890217,132.69935469565826 114.7264596625173,134.28498947111802 114.61150541927782,135.01533311863022 114.82499187099165,135.13064999818016 114.78393678410794,135.1594791951211 114.86604695790447,135.72645153644407 115.17806561815087,136.90843330841017 116.26191991165979,139.32039703035844 116.85311316270963,140.39663103217754 117.0173335102154,140.83865200649598 117.21439792722231,141.05966168465238 117.62494879597216,142.11665703580366 118.61027088100673,143.99039120673115 118.71701410689275,144.0 118.87302343701595,143.9039120212692 118.87302343701595,143.5483856136707 118.57742681147647,142.7604572502969 117.78095812609536,141.4151978613736 117.76453609135933,141.1749708678617 117.86306829986279,141.05966168465238 120.4823828425724,140.2717116701824 120.89293371129315,140.24288410064764 121.29527356271865,140.06030928046675 122.994954159396,139.56062894309434 123.47940418455983,139.46453625447612 123.83247793168994,139.49336407176452 123.9966982791957,139.62789376446744 124.31692795679555,139.58945672982372 125.20371783332666,139.28195986517676 125.54036954574985,139.0705551650899 125.7292229453451,138.85914997152577 125.9509204144706,138.753447189687 126.61601282190531,138.55165062721062 126.97729758635978,138.53243188350461 127.38784845516784,138.3786817871951 128.1514730710769,138.22493142983149 128.71803326994996,137.9750865424212 128.80835446107085,137.8021166011822 128.96436379122315,137.72524096569396 129.6623002681008,137.54266106989962 130.3109706407413,137.446566240018 131.24702662153868,137.47539469969342 131.329136795277,137.25437627438077 129.45702483374043,136.8507760189168 129.26817143408698,137.10062400820607 129.13679515608237,137.41773777118215 128.01188577566063,137.61953686036577 127.42069252463989,137.78289769843104 127.0840408122749,138.01352426227095 126.7966552041471,138.11922790775134 126.68991197829018,138.28258784442733 125.63069073687075,138.46516624850483 124.505781356449,138.8975873161544 123.60256944515277,139.14742965860205 123.38908299343893,139.1570389656772 123.24949569805176,139.2531319805712 122.81431177715422,139.3492248935363 121.42664984072326,139.48375480036339 120.87651167658623,139.83929716359125 118.905867506488,140.415849380297 118.38857341185212,140.4446768947455 117.73169202185818,140.6560783872992 117.54283862223383,140.66568753433967 117.38682929208153,140.59842348374514 117.27187504884205,140.4446768947455 116.91059028432937,139.41648987192457 116.52467246769811,138.85914997152577 115.99095633829711,137.86938272869884 115.93347921667737,137.50422315016476 116.14696566842031,137.10062400820607 116.16338770318544,136.86999511949398 116.0155893904448,136.3030299378952 115.75283683440648,135.67840317062655 115.59682750428328,135.52464822864567 115.35870800042176,135.47659975573333 115.09595544438343,135.217137561478 114.80856983622652,135.2075278363045 114.97279018373229,134.76547937579016 114.76751474937191,134.94806487108144 114.73467067984166,134.85196728786104 114.86604695790447,134.89040633337572 115.3915520698647,134.8615770507604 117.54283862223383,134.56367392637185 119.29999634050182,134.4579661305179 119.32462939264951,134.33303857631108 119.15219802776119,133.35283178494137 118.87302343701595,132.38222440851678 118.89765648910543,132.10353323919117 119.13577599302516,131.9786024365676 120.61375912054791,131.8440613794519 121.5498151013744,131.83445129630127 123.32339485440752,131.6326393143463 125.22013986809179,131.5557584409762 126.23009500521584,131.57497866544145 127.76555525444564,131.40199649843998 128.27463833169895,131.26745458451478 129.35849262523698,131.15213278485317 130.0892731716158,131.00798032877356 131.47693510801764,130.96953963505075 132.01065123744775,130.79655631135392 133.34904706958332,130.5755215834215 136.14079297718126,129.902803873847 137.36423456613556,129.79709063646442 137.5120328788471,129.7202082044896 137.47097779196338,129.7009875862932 137.6434091568808,129.5952741132569 137.7583634001203,129.41267782366776 137.80762950438657,127.60591573996498" stroke="red" stroke-linecap="round" stroke-linejoin="round" stroke-width="0.5"><title>2025-01-05 41.7km</title><desc>13269696066</desc></polyline><polyline fill="none" points="138.9398181916913,246.31873740811716 138.81148545758333,246.01831424432748 138.7564857143443,245.9753966130229 138.60981973237358,245.88956132314343 138.38982075965032,245.8251848318032 137.3264923908282,245.76080831991567 136.3914967563469,245.8466436644958 135.84149932430591,245.8251848318032 135.4748343694955,245.76080831991567 135.2365021489095,245.65351408797142 134.83317069883924,245.3745488182176 134.48483899177518,245.2672543812805 134.30150651442818,245.13850098164403 134.06317429395858,244.81661712372443 133.87984181649517,244.3659788614459 133.71484258689452,243.8295034296607 133.69650933914818,241.94109858151933 133.36651087983046,240.03121664081118 133.34817763208412,239.30159405629092 133.25651139346883,238.829483921465 133.0181791728828,237.97109903268574 133.0181791728828,237.39168717163557 132.88984643877484,236.6405952496425 132.85317994328216,236.06117957398237 132.6881807136815,235.2027829267754 132.4131819976028,234.1512420649815 132.28484926349483,232.949474380046 132.0831835384015,232.1983659476973 131.75318507908378,230.63175937638152 131.5331861062441,228.80761313297262 131.31318713340443,227.79896049312083 131.1115214083111,225.95332773408154 131.12985465605743,225.588491355913 131.20318764692638,225.15927124414884 131.12985465605743,224.40813385462388 130.89152243547142,223.91452776403457 130.61652371950913,222.66977661581768 130.4148579944158,221.9615527122951 130.34152500343043,221.61817053215054 130.2315255169524,220.26609752509103 129.5898618461797,218.6779367231793 129.05819766176865,217.0897634375433 128.41653399111237,215.58742586622247 128.0498690364184,214.21385031062528 127.82987006357871,213.74168155653751 127.11487340193707,211.89592038406408 126.30821050144732,209.92136650701286 126.12487802410033,209.44918772050005 126.05154503311496,208.82676854307647 125.86821255576797,208.1399589492794 125.79487956489902,208.03264473935997 125.8315460603917,208.03264473935997 125.79487956489902,208.07557043019915 125.66654683067463,208.03264473935997 125.62988033518195,208.05410758593644 125.13488264637999,208.33312438358553 124.95155016891658,208.39751282059296 124.0715542776743,208.56921521903132 123.28322462493088,208.5906780085934 122.78822693612892,208.71945469794446 121.90823104477022,208.76238024282793 121.44989985134453,208.91261957814277 120.42323797813151,208.99847057665465 119.98324003245216,209.08432153875765 118.46158047043718,209.19163519005815 117.39825210161507,209.40626232158684 115.87659253948368,209.55650117799814 115.56492732814513,209.53503849109984 115.16159587784205,209.42772502216394 114.97826340049505,209.34187420608941 114.73993117990904,209.08432153875765 114.61159844568465,208.76238024282793 114.13493400462903,207.4531470205402 113.85993528866675,206.35853568281163 113.60326982021797,204.79172874100914 113.36493759974837,203.67563967239403 113.03493914043065,202.30198312259745 112.97993939719163,201.6151513447694 112.9249396539526,201.2073438717198 112.72327392897569,200.5205083718174 112.63160769024398,200.37026279490965 112.52160820388235,200.0697713058471 112.48494170838967,199.3614681700128 112.28327598329633,198.3526685069519 112.35660897416528,198.56730715512822 112.35660897416528,198.67462639365112 112.30160923104268,198.71755407309684 112.2282762399409,198.61023485730402 112.15494324907195,198.39559625483525 112.02661051496398,197.3653277878475 111.80661154224072,196.59262298900285 111.60494581691455,195.455024433395 111.36661359644495,194.40327667244128 111.21994761459064,193.866668562041 111.16494787135161,193.50177423260175 110.7432831734186,191.1192127004033 110.4132847142173,189.68107637109642 110.28495197999291,188.69369326085143 110.00995326403063,187.68484031454136 109.75328779569827,186.1822840309469 109.56995531823486,185.55979315274453 109.27662335452624,184.20747877113172 108.57995994051453,181.33109743210662 107.69996404915582,177.2740421659255 107.4066320854472,176.2436659444793 107.1316333693685,174.89128917486232 106.8566346532898,173.9467666939745 106.67330217594281,172.63730776432203 106.37997021223418,171.60690788230568 106.21497098263353,170.64090321747062 105.97663876204751,169.65342700538167 105.86663927556947,168.81621512958372 105.75663978909142,168.30100609600777 105.60997380723711,167.3993871237035 105.4633078253828,166.9485761277465 105.26164210028946,165.9396145369974 105.05997637519613,165.2097242857999 104.98664338421077,164.63010367713287 104.54664543864783,162.3116046024079 104.27164672256913,161.5817012351181 104.17998048383743,160.48684123632847 104.0699809974758,159.90720706847787 103.77664903365076,158.81233798866742 103.70331604266539,158.29710342580802 103.59331655630376,158.08242196989886 103.5199835653184,157.58865375492314 103.20831835386343,156.96607471899188 103.07998561963905,156.8587333118776 103.04331912414636,156.53670874802629 102.89665314229205,156.27908872703847 102.74998716043774,156.1502785932389 102.51165493985172,156.04293675236113 102.2733227192657,156.0 101.86999126919545,156.0 100.16499922960065,156.32202542001323 99.211670347373,156.4508354441641 98.27667471277528,156.66551863518544 96.9383476281073,156.90166988156852 94.68335815647151,157.41690800577635 93.21669833757915,157.65305837322376 92.39170218945947,157.8892084643885 89.60504853352904,158.34003968963225 87.69839076907374,159.0484867237974 86.17673120694235,159.64959134859964 84.38007292884868,160.29363003195613 83.04174584406428,160.76592376067128 81.57508602517191,161.21674856194295 80.7867563724285,161.51729787017393 79.57676202186849,161.8393144895963 79.10009758081287,162.05399195059726 78.45843391004018,162.24720147027983 77.90843647788279,162.50481387559557 75.83677948371042,163.25618151352683 74.92011709697545,163.47085746786615 73.9301217191387,163.81433852014015 72.33512916613836,164.4798313958745 71.34513378841802,164.84477817060542 70.75846986076795,165.016517601136 70.17180593323428,165.1453220780677 70.00680670363363,165.31706125290657 70.0434731990099,165.25265907945868 69.80514097842388,165.3814634057926 69.38347628049087,165.55320237971318 68.66847961884923,165.78934323041176 68.26514816866256,165.98254917544546 66.83515484526288,166.3474932340032 65.84515946754254,166.4977641252044 64.04850118933246,166.8841744747042 63.18683854572009,167.1417809635168 62.01351069053635,167.35645278650918 61.37184701988008,167.52819008057122 61.11518155154772,167.63552581513068 60.895182578708045,167.85019711308996 60.803516340092756,168.02193398711097 60.82184958772268,168.49420963767625 60.93184907420073,168.90208317410725 61.04184856067877,169.8036954361305 61.37184701988008,170.29743377836712 61.95851094741374,171.75717485930363 62.38017564534675,172.4441081869736 62.50850837957114,172.85197374456038 62.61850786593277,173.43157075128693 62.76517384778708,173.90383374894736 62.948506325134076,174.74102453024534 63.11350555473473,175.02008735267736 63.18683854572009,175.29914978941088 63.131838802597485,175.51381293981103 62.96683957288042,175.66407700942364 61.683512231335044,176.22219971724553 61.00518206518609,176.58712526914314 60.82184958772268,176.6300576436479 60.73018334910739,176.84471937925264 60.41851813765243,177.03791474628088 60.18018591706641,177.2740421659255 60.088519678334706,177.53163539977686 60.12518617382739,177.6604318935133 60.2718521556817,177.83216042403365 61.170181294786744,178.58347102782864 61.40851351537276,178.81959664028545 61.610179240466096,179.1201197477203 62.526841627201065,180.12901548035734 62.89350658201147,180.60126281474368 63.35183777543716,181.39549447764875 63.956834950717166,182.2755853745184 64.52516563050449,183.24153438296344 65.88182596291881,185.34514068093267 66.26682416547555,186.0964233342238 66.5234896336915,186.43986590209533 66.7984883497702,186.71891255835362 66.8901545885019,186.74037766981928 66.8901545885019,186.71891255835362 66.8901545885019,186.76184277895663 67.47681851603556,187.64191029006906 67.99014945258386,188.80101774574723 68.57681338023394,189.96011854916287 69.6218085011933,191.67729269704432 69.95180696027819,192.29976472033013 70.35513841058128,193.2871302015701 70.53847088792827,193.866668562041 71.1984678064473,195.11159719528223 71.95013096358161,196.89311965090747 72.15179668879136,197.47264766505396 72.4084621570073,198.3526685069519 72.5367948912317,198.99658376714797 72.84846010268666,199.98391651263228 72.9584595891647,200.5205083718174 73.1417920665117,200.9712444320612 73.50845702120569,202.23759274263284 73.83845548040699,203.11759282561252 74.05845445336308,203.86880937548995 74.31511992157903,205.30684469285188 74.40678616031073,205.69318079479854 74.73678461951204,206.70194379982422 75.17678256519139,208.6765291439806 75.43344803364016,209.64235190294858 75.63511375861708,210.90864585792588 75.91011247469578,211.98177011484222 76.00177871331107,212.9261147457728 76.02011196105741,214.49285860119562 76.29511067713611,216.40298193393392 76.36844366800506,219.10717060339812 76.49677640222944,220.05148193004425 76.49677640222944,220.75971252871386 76.4234434113605,222.00447544384224 76.51510964997578,222.56247012337553 76.58844264096115,222.73416048403305 76.5701093932148,222.86292815876368 76.44177665899042,222.97023449161497 76.60677588859107,222.9916957513924 76.60677588859107,222.94877322959655 76.6617756318301,223.03461826402054 76.77177511830814,223.6140712924098 76.71677537506912,224.06475583228166 76.71677537506912,224.51543936698 76.77177511830814,224.98758294411527 76.71677537506912,225.52410839723598 76.7534418705618,226.1250152134744 76.95510759553872,227.32682348499657 77.0834403297631,227.79896049312083 77.02844058652408,228.39986054445035 77.04677383438684,229.17244369903347 77.3584390458418,230.2454709579033 77.43177203671075,231.08242826450441 77.52343827544246,231.44725472359278 78.23843493720051,233.61473951730295 78.55010014865547,234.8808832441573 78.62343313964084,235.09548308957892 78.88009860785678,236.18993875660817 79.13676407630555,237.0054116747342 79.26509681041352,237.4131468997948 79.52176227862947,237.9496393637237 79.77842774696182,238.8080243436998 79.94342697656248,239.00116046174662 80.05342646304052,239.36597262554278 80.20009244501125,239.70932464883663 80.49342440871987,240.48186456834082 80.65842363843694,241.2329422144976 80.86008936353028,241.85526157832646 80.95175560214557,242.3702830509137 81.13508807949256,243.09989455723553 81.22675431822427,243.4646993226488 81.37342030007858,243.80804438280757 82.01508397085126,245.1599598872417 82.98674610082526,246.85520623276534 83.42674404650461,247.73501202279294 83.84840874443762,248.1641841892415 83.95840823091567,248.33585280066472 84.21507369913161,249.08690126131114 85.02173659950495,250.18128116516164 85.15006933372933,250.3529480634752 85.31506856332999,250.4816981415206 85.31506856332999,250.5460731497442 85.26006882020738,250.52461481600767 85.26006882020738,250.5460731497442 85.71840001351666,251.4902375821548 85.84673274762463,251.89794358727522 85.95673223410267,252.13398353017692 86.37839693203568,252.8206436150358 86.81839487771504,253.72188143654785 87.2217263279017,254.68748892925214 87.2217263279017,254.73040471076092 87.16672658466268,254.70894682111975 87.16672658466268,254.75186259805923 87.42339205299504,255.41705597571854 87.82672350318171,256.85472450748784 88.0100559805287,257.77740190982877 88.15672196238302,258.3567553356261 88.32172119210009,259.3437980888266 88.37672093533911,260.28792143006285 88.5600534126861,261.6182695634343 88.5600534126861,261.94012666759954 88.48672042170074,262.17615488490264 88.1933884578757,262.6052963922557 88.13838871475309,262.77695274015423 88.13838871475309,263.20609297220653 88.2850546966074,263.52794754841307 88.54172016493976,263.8712585315807 88.78005238540936,263.9785430942575 89.05505110148806,264.0 89.40338280855212,263.95708618624485 89.71504802000709,263.8498016121739 90.3200451952871,263.54940450185677 91.5300395458471,263.420662746561 92.31836919859052,263.20609297220653 93.08836560347117,263.1417219954019 94.00502799020614,263.0988079996023 95.45335456146859,263.1417219954019 96.77334839850664,262.99152297001274 97.92834300582763,263.0129799805145 99.08333761326503,262.9271519250324 99.54166880657431,262.8198668043624 100.01833324774634,262.77695274015423 100.98999537772033,262.79840977342974 101.66832554410212,262.73403866683657 103.6116498040501,262.73403866683657 104.36331296118442,262.6052963922557 105.77497303695418,262.51946816370764 106.92996764427517,262.32635451611714 107.47996507631615,262.28344034717884 108.39662746316753,262.28344034717884 109.5332888228586,262.1976119819301 110.35828497097827,262.21906907665834 112.00827726721764,262.15469778561965 114.77659767540172,262.1976119819301 115.61992707126774,262.15469778561965 116.62825569673441,261.9830409093847 117.70991731318645,261.87575528773596 117.70991731318645,261.89721241664665 117.74658380867913,261.7899267494504 117.80158355191816,261.74701246658515 118.47991371806711,261.5324409157911 118.77324568189215,261.48952657835616 120.2765719962772,261.33932632542565 121.1199013920268,261.3607835112198 121.59656583319884,261.33932632542565 122.18322976084892,261.2105831626541 122.6415609541582,261.0389254847105 123.28322462493088,260.8672676610295 123.92488829581998,260.91018213066855 125.5015476011904,260.84581042284844 125.79487956489902,260.6741524351819 126.32654374919366,260.5024943018361 127.09654015407432,260.3952078943985 127.64653758623172,260.35229331553273 129.3515296257101,260.0948056508496 130.2315255169524,259.7944029608334 132.66984746593516,259.3437980888266 133.12817865936086,259.2150536551926 133.58650985278655,259.04339428283856 135.84149932430591,258.6357026892365 137.71149059338495,258.4425853316061 138.31648776866496,258.31384032398637 139.1231506690383,258.2065527550585 139.37981613737065,258.0778075971175 139.69148134882562,257.8203170353372 139.80148083530366,257.6701140561927 139.8564805785427,257.4769957761164 139.9114803217817,256.40411308282637 139.7648143399274,254.94498348163324 139.78314758755732,254.36562027757464 139.7648143399274,253.7647974230931" stroke="#4dd2ff" stroke-linecap="round" stroke-linejoin="round" stroke-width="0.5"><title>2025-01-04 16.8km</title><desc>13261684153</desc></polyline></svg>