<?xml version="1.0" encoding="utf-8" ?>
<svg baseProfile="full" height="300mm" version="1.1" viewBox="0,0,200,300" width="200mm" xmlns="http://www.w3.org/2000/svg" xmlns:ev="http://www.w3.org/2001/xml-events" xmlns:xlink="http://www.w3.org/1999/xlink"><defs /><rect fill="#222222" height="300" width="200" x="0" y="0" /><text fill="#FFFFFF" style="font-size:12px; font-family:Arial; font-weight:bold;" x="10" y="20">Over 10km Runs</text><text fill="#FFFFFF" style="font-size:4px; font-family:Arial" x="10" y="280">ATHLETE</text><text fill="#FFFFFF" style="font-size:9px; font-family:Arial" x="10" y="290">shellj</text><text fill="#FFFFFF" style="font-size:4px; font-family:Arial" x="120" y="280">STATISTICS</text><text fill="#FFFFFF" style="font-size:3px; font-family:Arial" x="120" y="285">Number: 1</text><text fill="#FFFFFF" style="font-size:3px; font-family:Arial" x="120" y="290">Weekly: 1.0</text><text fill="#FFFFFF" style="font-size:3px; font-family:Arial" x="141" y="285">Total: 16.8 km</text><text fill="#FFFFFF" style="font-size:3px; font-family:Arial" x="141" y="290">Avg: 16.8 km</text><text fill="#FFFFFF" style="font-size:3px; font-family:Arial" x="167" y="285">Min: 16.8 km</text><text fill="#FFFFFF" style="font-size:3px; font-family:Arial" x="167" y="290">Max: 16.8 km</text><polyline fill="none" points="158.40972728747874,204.4781061121903 158.2172281863168,204.02747136651305 158.13472857151646,203.96309491954162 157.9147295986768,203.83434198473697 157.58473113947548,203.7377772477339 155.98973858635873,203.64121247988078 154.58724513452034,203.76996549675823 153.76224898651708,203.7377772477339 153.21225155424327,203.64121247988078 152.85475322348066,203.4802711319644 152.24975604820065,203.06182322732639 151.72725848772097,202.90088157192804 151.45225977164228,202.7077514724806 151.09476144087967,202.22492568558664 150.81976272480097,201.5489682921907 150.5722638804,200.7442551444983 150.54476400883868,197.91164787230082 150.0497663198039,195.04682496123132 150.02226644812617,193.9523910844582 149.88476709020324,193.2442258821975 149.52726875932422,191.9566485490359 149.52726875932422,191.08753075747518 149.33476965804584,189.96089287448558 149.27976991492324,189.0917693609954 149.03227107052226,187.80417439018493 148.6197729964042,186.22686309748678 148.42727389524225,184.42421157009085 148.12477530748583,183.29754892154597 147.62977761868387,180.9476390645723 147.29977915936615,178.21141969948076 146.96978070004843,176.69844073971035 146.66728211252484,173.92999160115141 146.69478198408615,173.38273703388404 146.80478147044778,172.73890686623054 146.69478198408615,171.61220078193583 146.33728365332354,170.87179164605914 145.9247855793219,169.0046649237338 145.6222869915655,167.94232906846446 145.51228750520386,167.42725579824764 145.3472882754868,165.39914628764382 144.38479276932776,163.01690508477623 143.58729649276938,160.6346451563295 142.62480098672677,158.38113879936282 142.0748035546858,156.32077546595247 141.74480509536806,155.61252233482082 140.6723101028474,152.84388057611068 139.46231575217098,149.8820497605484 139.1873170362087,149.17378158075735 139.07731754973065,148.24015281462925 138.80231883365195,147.2099384239409 138.69231934729032,147.04896710906178 138.74731909052934,147.04896710906178 138.69231934729032,147.11335564529872 138.49982024612837,147.04896710906178 138.44482050277293,147.08116137891193 137.70232396945357,147.4996865753783 137.4273252534913,147.59626923091128 136.10733141645323,147.85382282856153 134.92483693745453,147.88601701290463 134.18234040413518,148.07918204693124 132.86234656709712,148.14357036424917 132.1748497770168,148.36892936722143 130.63485696725547,148.49770586498198 129.97486004873645,148.62648230814375 127.69237070565578,148.7874527850945 126.09737815253902,149.10939348238753 123.81488880934194,149.33475176701904 123.34739099210128,149.3025577366643 122.74239381682128,149.14158753326046 122.46739510074258,149.01281130913412 122.10989676986355,148.62648230814375 121.91739766858518,148.14357036424917 121.20240100694355,146.1797205308103 120.78990293294191,144.537803524232 120.40490473038517,142.18759311153553 120.04740639962256,140.51345950862742 119.55240871070419,138.45297468392528 119.46990909590386,137.42272701716865 119.38740948098712,136.81101580758695 119.08491089346353,135.78076255772612 118.94741153542418,135.55539419237175 118.78241230582353,135.10465695877792 118.72741256270092,134.04220225501922 118.4249139749445,132.52900276044966 118.53491346130613,132.8509607326996 118.53491346130613,133.0119395904767 118.4524138465058,133.07633110965253 118.34241436002776,132.91535228598514 118.23241487366613,132.5933943822747 118.03991577250417,131.0479916817858 117.70991731330287,129.88893448351882 117.40741872543003,128.1825366501289 117.04992039466742,126.60491500867647 116.82992142194416,125.80000284308335 116.74742180702742,125.25266134893172 116.11492476018611,121.67881905060494 115.61992707138415,119.52161455666646 115.42742796998937,118.04053989128442 115.01492989598773,116.52726047180477 114.6299316935474,114.27342604642035 114.35493297735229,113.33968972915318 113.91493503178935,111.31121815671213 112.86993991083,106.99664614818175 111.54994607379194,100.91106324890279 111.10994812822901,99.36549891674076 110.69745005411096,97.33693376230076 110.28495197999291,95.92015004096902 110.00995326391421,93.95596164648305 109.56995531835128,92.41036182348034 109.3224564739503,90.96135482622776 108.96495814295486,89.48014050809434 108.7999589133542,88.22432269441197 108.63495968375355,87.45150914401165 108.41496071091387,86.09908068558434 108.1949617380742,85.42286419164157 107.89246315055061,83.9094218055252 107.5899645627942,82.81458642872167 107.47996507643256,81.94515551571385 106.81996815791354,78.4674069036264 106.4074700839119,77.37255185269169 106.26997072587255,75.73026185450726 106.10497149615549,74.86081060272409 105.66497355047613,73.21850698301569 105.5549740641145,72.44565513872658 105.38997483451385,72.12363295487012 105.2799753480358,71.38298063239199 104.81247753079515,70.44911207849509 104.61997842951678,70.28809996781638 104.56497868627775,69.80506312203943 104.3449797135545,69.41863309056498 104.12498074071482,69.22541788988747 103.7674824098358,69.06440512856352 103.40998407895677,69.0 102.80498690379318,69.0 100.24749884440098,69.48303813004168 98.8175055210013,69.67625316625345 97.41501206916291,69.99827795280726 95.40752144216094,70.35250482236734 92.02503723476548,71.12536200869363 89.82504750636872,71.47958755985019 88.5875532842474,71.8338126965973 84.40757280029356,72.51005953445565 81.54758615361061,73.5727300856961 79.26509681041352,74.47438702289946 76.5701093932148,75.44044504794874 74.56261876609642,76.14888564104331 72.36262903769966,76.82512284294353 71.18013455870096,77.27594680528273 69.36514303274453,77.75897173440899 68.65014637121931,78.08098792590317 67.68765086506028,78.3708022054343 66.86265471682418,78.75722081339336 63.75516922562383,79.88427227031207 62.38017564534675,80.2062862018065 60.895182578708045,80.72150778022478 58.50269374914933,81.7197470938263 57.01770068262704,82.26716725592269 56.13770479115192,82.52477640172583 55.25770889990963,82.71798311712337 55.010210055392236,82.97559187936713 55.06520979863126,82.8789886191953 54.70771146775223,83.0721951086889 54.07521442079451,83.3298035695916 53.00271942827385,83.68401484563947 52.39772225311026,83.97382376316818 50.25273226783611,84.52123985101935 48.7677392011974,84.74664618782117 46.07275178399868,85.32626171206357 44.78025781863835,85.71267144527519 43.02026603592094,86.03467917977832 42.05777052976191,86.29228512087138 41.67277232732158,86.45328872269602 41.342773868120275,86.7752956696495 41.20527451019734,87.03290098067373 41.23277438164223,87.7413144565071 41.39777361124288,88.35312476116815 41.56277284095995,89.70554315421032 42.05777052976191,90.44615066755796 42.937766421120614,92.63576228896272 43.57026346807834,93.66616228048224 43.76276256935671,94.2779606168624 43.92776179895736,95.14735612695222 44.14776077179704,95.85575062345015 44.42275948775932,97.11153679538984 44.6702583321603,97.53013102905243 44.78025781863835,97.94872468413087 44.69775820383802,98.27071940974565 44.450259359320626,98.49611551416456 42.525268347002566,99.3332995758974 41.507773097837344,99.88068790372927 41.23277438164223,99.94508646547911 41.095275023719296,100.26707906890078 40.627777206362225,100.55687211942859 40.270278875599615,100.91106324890279 40.13277951744385,101.29745309968712 40.18777926068287,101.49064784028451 40.40777823352255,101.74824063605047 41.75527194223832,102.87520654176478 42.11277027300093,103.22939496045001 42.415268860640936,103.68017962158774 43.7902624408016,105.19352322054328 44.34025987307541,105.90189422213007 45.02775666315574,107.09324171647313 45.93525242607575,108.4133780617849 46.78774844564032,109.86230157446698 48.82273894443642,113.01771102141356 49.400236248155124,114.14463500134298 49.78523445059545,114.65979885315755 50.197732524597086,115.07836883753771 50.335231882636435,115.1105665047362 50.335231882636435,115.07836883753771 50.335231882636435,115.14276416844223 51.215227774111554,116.46286543511087 51.98522417899221,118.20152661862085 52.865220070350915,119.94017782376613 54.43271275178995,122.51593904558104 54.927710440475494,123.44964708050247 55.53270761598833,124.93069530237699 55.80770633195061,125.80000284308335 56.797701709670946,127.66739579293062 57.92519644543063,130.33967947636847 58.22769503318705,131.20897149760276 58.612693235627376,132.52900276044966 58.80519233678933,133.4948756507365 59.27269015402999,134.97587476894842 59.437689383747056,135.78076255772612 59.712688099825755,136.45686664810637 60.26268553186674,138.35638911396381 60.757683220668696,139.67638923841878 61.08768167998642,140.80321406322764 61.472679882426746,142.96026703927782 61.610179240466096,143.53977119221236 62.10517692938447,145.05291569975088 62.76517384778708,148.0147937159927 63.150172050343826,149.4635278544447 63.45267063798383,151.36296878691064 63.86516871198546,152.97265517228516 64.00266807002481,154.3891721186519 64.03016794170253,156.73928790181526 64.44266601570416,159.60447290091543 64.55266550206579,163.660755905119 64.74516460334416,165.07722289508092 64.74516460334416,166.13956879306352 64.63516511698253,168.0067131657852 64.77266447502188,168.84370518507785 64.88266396149993,169.1012407260714 64.85516408982221,169.29439223816735 64.66266498842742,169.45535173741519 64.91016383294482,169.48754362709587 64.91016383294482,169.42315984441666 64.99266344774514,169.55192739603808 65.15766267746221,170.42110693862196 65.07516306254547,171.09713374843705 65.07516306254547,171.77315905046999 65.15766267746221,172.4813744161802 65.07516306254547,173.2861625958758 65.13016280590091,174.18752282022615 65.43266139330808,175.9902352275094 65.62516049470287,176.69844073971035 65.54266087990254,177.59979081669007 65.57016075158026,178.7586655485502 66.03765856882092,180.36820643689134 66.14765805506613,181.6236423967639 66.2851574132219,182.17088208539644 67.35765240574256,185.42210927596898 67.82515022298321,187.32132486626506 67.93514970946126,187.64322463437566 68.32014791190159,189.2849081349268 68.70514611445833,190.5081175121304 68.89764521562029,191.1197203496995 69.2826434179442,191.92445904557826 69.66764162050094,193.21203651555697 69.91514046490192,193.50174069261993 70.08013969450258,194.048958938336 70.30013866745867,194.56398697328405 70.74013661313802,195.7227968525258 70.98763545765541,196.84941332176095 71.290134045179,197.78289236751152 71.42763340321835,198.5554245763924 71.70263211918063,199.64984183586785 71.8401314773364,200.19704898397322 72.06013045005966,200.7120665742259 73.0226259563351,202.73993983087712 74.4801191512961,205.2828093491553 75.14011606981512,206.6025180341967 75.77261311665643,207.24627628386952 75.93761234625708,207.50377920101164 76.32261054869741,208.6303518920031 77.53260489937384,210.27192174774245 77.72510400065221,210.52942209522007 77.97260284505319,210.72254721229547 77.97260284505319,210.81910972463083 77.89010323025286,210.7869222240115 77.89010323025286,210.81910972463083 78.57760002021678,212.23535637324676 78.77009912149515,212.84691538091283 78.93509835121222,213.20097529527266 79.56759539805353,214.2309654225537 80.22759231645614,215.58282215482905 80.83258949185256,217.0312333939073 80.83258949185256,217.09560706614866 80.75008987705223,217.063420231716 80.75008987705223,217.12779389711795 81.13508807949256,218.1255839635851 81.74008525477257,220.28208676126087 82.01508397085126,221.66610286475043 82.23508294369094,222.53513300346094 82.48258178809192,224.0156971332617 82.56508140289225,225.4318821451161 82.84008011897095,227.42740434515872 82.84008011897095,227.91019000139204 82.73008063260932,228.2642323273758 82.29008268692996,228.9079445883981 82.20758307212964,229.16542911026045 82.20758307212964,229.80913945831708 82.4275820448529,230.29192132264143 82.81258024740964,230.80688779740012 83.17007857817225,230.9678146413935 83.5825766522903,231.0 84.10507421276998,230.93562927938183 84.57257203001063,230.7747024182754 85.48006779293064,230.32410675278516 87.29505931888707,230.13099411985604 88.47755379788578,229.80913945831708 89.63254840532318,229.7125829931174 91.00754198536742,229.64821199941798 93.1800318423193,229.7125829931174 95.16002259775996,229.48728445504094 96.89251450868323,229.51946997077903 98.62500641983934,229.3907278875704 99.31250320991967,229.22980020655086 100.0274998715613,229.16542911026045 101.48499306663871,229.19761466016644 102.50248831615318,229.10105800026213 105.41747470607515,229.10105800026213 106.54496944183484,228.9079445883981 108.66245955543127,228.7792022455833 110.39495146647096,228.48953177419025 111.21994761447422,228.42516052076826 112.59494119486772,228.42516052076826 114.29993323422968,228.29641797288787 115.537427456351,228.3286036149948 118.01241590094287,228.23204667845857 122.16489651298616,228.29641797288787 123.42989060690161,228.23204667845857 124.94238354521804,227.9745613640698 126.56487596977968,227.81363293161849 126.56487596977968,227.84581862497726 126.6198757130187,227.68489012419013 126.70237532781903,227.62051869989955 127.71987057721708,227.29866137370118 128.15986852278002,227.23428986754152 130.4148579944158,227.00898948815302 131.67985208809841,227.04117526684422 132.39484874985646,227.00898948815302 133.27484464121517,226.81587474400294 133.9623414312955,226.558388227073 134.92483693745453,226.3009014915733 135.88733244372997,226.36527319601737 138.2523214017274,226.26871563427267 138.69231934729032,226.0112286527874 139.4898156238487,225.75374145276146 140.64481023116969,225.592811841605 141.46980637928937,225.52843997330638 144.02729443856515,225.14220847628894 145.3472882754868,224.69160444126464 149.00477119896095,224.0156971332617 149.69226798892487,223.82258048281074 150.37976477912161,223.5650914242724 153.76224898651708,222.95355403385474 156.56723589007743,222.66387799743097 157.47473165299743,222.47076048600138 158.68472600367386,222.30982913260232 159.0697242061142,222.11671139570535 159.53722202335484,221.73047555302037 159.7022212529555,221.50517108431086 159.78472086775582,221.21549366417457 159.86722048267256,219.6061696242541 159.6472215098329,217.41747522246442 159.67472138127778,216.54843041635468 159.6472215098329,215.64719613463967" stroke="#4DD2FF" stroke-linecap="round" stroke-linejoin="round" stroke-width="0.5"><title>2025-01-04 16.8km</title><desc>13261684153</desc></polyline></svg>