<?xml version="1.0" encoding="utf-8" ?>
<svg baseProfile="full" height="200mm" version="1.1" viewBox="0,0,200,200" width="200mm" xmlns="http://www.w3.org/2000/svg" xmlns:ev="http://www.w3.org/2001/xml-events" xmlns:xlink="http://www.w3.org/1999/xlink"><defs /><rect fill="#1a1a1a" height="200" width="200" x="0" y="0" /><text alignment-baseline="middle" fill="#e1ed5e" style="dominant-baseline: central; font-size:9.0px; font-family:Arial;" text-anchor="middle" x="100.0" y="100.0">2024</text><line stroke="#e1ed5e" stroke-width="0.3" x1="100.0" x2="100.0" y1="15.0" y2="10.0" /><path d="M 100.0 14.0 a86.0,86.0 0 0,1 42.35913384403234,11.155469271406648" fill="none" id="id1" stroke="none" /><text fill="#e1ed5e" style="font-size:6.75px; font-family:Arial;" text-anchor="middle"><textPath startOffset="22.145653131862478" xlink:href="#id1">January</textPath></text><line stroke="#e1ed5e" stroke-width="0.3" x1="143.13028292997686" x2="145.6673583964461" y1="26.7553504044142" y2="22.446841604673864" /><path d="M 143.63769802327073 25.89364864446614 a86.0,86.0 0 0,1 29.32050498858742,28.57503671076993" fill="none" id="id2" stroke="none" /><text fill="#e1ed5e" style="font-size:6.75px; font-family:Arial;" text-anchor="middle"><textPath startOffset="20.669276256404974" xlink:href="#id2">February</textPath></text><line stroke="#e1ed5e" stroke-width="0.3" x1="172.87174338648825" x2="177.1583165268699" y1="56.24261187166439" y2="53.66864786411523" /><path d="M 173.72905801456457 55.72781907015455 a86.0,86.0 0 0,1 12.242430191666344,42.057860355516425" fill="none" id="id3" stroke="none" /><text fill="#e1ed5e" style="font-size:6.75px; font-family:Arial;" text-anchor="middle"><textPath startOffset="22.145653131862474" xlink:href="#id3">March</textPath></text><line stroke="#e1ed5e" stroke-width="0.3" x1="184.99686870605535" x2="189.99668451229388" y1="99.2704041080226" y2="99.22748670261217" /><path d="M 185.99683186730306 99.26182062694052 a86.0,86.0 0 0,1 -10.086455211305974,41.156179273409016" fill="none" id="id4" stroke="none" /><text fill="#e1ed5e" style="font-size:6.75px; font-family:Arial;" text-anchor="middle"><textPath startOffset="21.40746469413373" xlink:href="#id4">April</textPath></text><path d="M 118.8641267826498 109.22738970284198 l 15.410948938243033 7.538267378194123 a38.155839304513194,38.155839304513194 0 0,0 -0.2928553090752682,0.5859067941447982 l -15.279273715956032 -7.801706028502667" fill="#ff0000" stroke="none" /><path d="M 118.70294669586154 109.54985784667822 l 28.447888834436068 14.525694738096165 a52.94179373111014,52.94179373111014 0 0,0 -0.4202366585223179,0.8058592029969445 l -28.1943441069388 -15.011900184197613" fill="#f4ff19" stroke="none" /><path d="M 118.5362547648365 109.86951160357373 l 16.036595455869 8.538583815419026 a39.168098617855804,39.168098617855804 0 0,0 -0.3210938249423282,0.5907764723426617 l -15.887656281311333 -8.812615121236291" fill="#ff1402" stroke="none" /><line stroke="#e1ed5e" stroke-width="0.3" x1="174.33088141563837" x2="178.70328620479359" y1="141.23008692659167" y2="143.65538615756765" /><path d="M 175.20536237346943 141.71514677278685 a86.0,86.0 0 0,1 -30.301960400862466,31.631185727798858" fill="none" id="id5" stroke="none" /><text fill="#e1ed5e" style="font-size:6.75px; font-family:Arial;" text-anchor="middle"><textPath startOffset="22.145653131862474" xlink:href="#id5">May</textPath></text><path d="M 117.423217284605 111.72311816256416 l 23.87836760701475 16.06643138368715 a49.780317180018336,49.780317180018336 0 0,0 -0.48313045456554127,0.7049017717396853 l -23.599047415633887 -16.47396789049688" fill="#ffd614" stroke="none" /><path d="M 117.21940702142032 112.02048342749411 l 24.016314942629094 16.765253030968786 a50.28919754134547,50.28919754134547 0 0,0 -0.5002216225443473,0.7036243565786533 l -23.72497822155479 -17.175054614256947" fill="#ffde14" stroke="none" /><path d="M 117.01052211995028 112.31430620078461 l 23.90075364430216 17.302302464911975 a50.50619757530478,50.50619757530478 0 0,0 -0.514436840945612,0.697932375198713 l -23.600214783772717 -17.710041149379563" fill="#ffe215" stroke="none" /><path d="M 116.79662413953412 112.60449989151573 l 23.098098158029583 17.333243472529055 a49.87842564607601,49.87842564607601 0 0,0 -0.5197997535868613,0.68043456324146 l -22.797146427088414 -17.72719894901139" fill="#ffd714" stroke="none" /><path d="M 116.57777611688842 112.89097897827486 l 22.445129359797434 17.45346834832973 a49.432505857982136,49.432505857982136 0 0,0 -0.5266529037113455,0.6654087394462932 l -22.142210025444527 -17.836197031690705" fill="#ffd013" stroke="none" /><path d="M 116.35404254752997 113.17365903436017 l 22.947658263889995 18.48500911789316 a50.46677080857134,50.46677080857134 0 0,0 -0.5492543329073409,0.670000978641657 l -22.626957111744026 -18.876212378233312" fill="#ffe115" stroke="none" /><path d="M 115.89218393027572 113.72728997021213 l 47.67655179082715 41.181869910636365 a84.0,84.0 0 0,0 -0.9519557441656579,1.0831508887548273 l -46.96258498270291 -41.99423307720248" fill="#4dd2ff" stroke="none" /><path d="M 115.6541949942343 113.99807769240083 l 20.877525420852788 18.668811968536826 a49.00706353788162,49.00706353788162 0 0,0 -0.5661536328227694,0.6223020179909875 l -20.553974087188138 -19.024451562085485" fill="#ffc912" stroke="none" /><path d="M 115.41159269507618 114.26474011684316 l 20.98306038982892 19.42160743792325 a49.59174109416919,49.59174109416919 0 0,0 -0.5836337860136047,0.6197988555421967 l -20.646570770079055 -19.77894775340994" fill="#ffd313" stroke="none" /><path d="M 115.16444852881244 114.52719865689866 l 20.215978678528913 19.36645027009208 a48.995449451557036,48.995449451557036 0 0,0 -0.5870429412171523,0.6023577733492501 l -19.880548936160952 -19.710630735509067" fill="#ffc812" stroke="none" /><path d="M 114.91283532996324 114.78537596483092 l 19.94935102804902 19.77884477886325 a49.09233538221211,49.09233538221211 0 0,0 -0.5984778341683767,0.5933626697411517 l -19.60688127375068 -20.118387458833062" fill="#ffca12" stroke="none" /><path d="M 114.13192950727249 115.5334660781643 l 19.774924844241536 21.73610646077725 a50.38547220429925,50.38547220429925 0 0,0 -0.6447780248244664,0.5765644856966412 l -19.39888179259369 -22.072366476357278" fill="#ffe015" stroke="none" /><path d="M 113.86319453409587 115.77377054828091 l 19.47595595943132 22.160062729908844 a50.502224335246375,50.502224335246375 0 0,0 -0.6560972912511853,0.5667212137230444 l -19.09267918841728 -22.491128076096604" fill="#ffe215" stroke="none" /><path d="M 113.59037401385872 116.0094264158162 l 18.740012117795825 22.075687153673265 a49.95727917954291,49.95727917954291 0 0,0 -0.6585455748731935,0.5493821405442207 l -18.358292208760734 -22.394131478129356" fill="#ffd914" stroke="none" /><path d="M 113.31354834802062 116.24036423190432 l 18.234863720323556 22.24356879142749 a49.762590416680816,49.762590416680816 0 0,0 -0.6652766154576301,0.5358997489520185 l -17.850336334510672 -22.55331683417291" fill="#ffd513" stroke="none" /><path d="M 113.03279911837588 116.46651593811092 l 18.232160696322314 23.03573944210412 a50.37783135803308,50.37783135803308 0 0,0 -0.6827157054923642,0.5308838619598928 l -17.83403504619472 -23.345324355684806" fill="#ffe015" stroke="none" /><path d="M 112.16784306229584 117.11559508785304 l 17.166464229973123 24.146781754669977 a50.62692294631033,50.62692294631033 0 0,0 -0.7126460448427249,0.49748228618122675 l -16.74942309395664 -24.437908856656325" fill="#ffe415" stroke="none" /><line stroke="#e1ed5e" stroke-width="0.3" x1="143.1302829299769" x2="145.66735839644613" y1="173.24464959558577" y2="177.55315839532614" /><path d="M 143.63769802327073 174.10635135553383 a86.0,86.0 0 0,1 -40.68552437913181,11.842963189579606" fill="none" id="id6" stroke="none" /><text fill="#e1ed5e" style="font-size:6.75px; font-family:Arial;" text-anchor="middle"><textPath startOffset="21.407464694133747" xlink:href="#id6">June</textPath></text><line stroke="#e1ed5e" stroke-width="0.3" x1="101.45913802915013" x2="101.54496967792366" y1="184.9874750549273" y2="189.98673829345242" /><path d="M 101.47630435890484 185.9873277026323 a86.0,86.0 0 0,1 -42.54439059252881,-10.42667462771756" fill="none" id="id7" stroke="none" /><text fill="#e1ed5e" style="font-size:6.75px; font-family:Arial;" text-anchor="middle"><textPath startOffset="22.145653131862474" xlink:href="#id7">July</textPath></text><line stroke="#e1ed5e" stroke-width="0.3" x1="58.13341422392154" x2="55.67067388415222" y1="173.97424548756322" y2="178.32567169271397" /><path d="M 57.64086615596768 174.84453072859336 a86.0,86.0 0 0,1 -31.369924170532247,-30.572349798747897" fill="none" id="id8" stroke="none" /><text fill="#e1ed5e" style="font-size:6.75px; font-family:Arial;" text-anchor="middle"><textPath startOffset="22.145653131862474" xlink:href="#id8">August</textPath></text><line stroke="#e1ed5e" stroke-width="0.3" x1="26.387840678322732" x2="22.057713659400548" y1="142.50000000000003" y2="145.00000000000006" /><path d="M 25.521815274538298 143.00000000000003 a86.0,86.0 0 0,1 -11.493303480769221,-40.785679425670985" fill="none" id="id9" stroke="none" /><text fill="#e1ed5e" style="font-size:6.75px; font-family:Arial;" text-anchor="middle"><textPath startOffset="21.40746469413373" xlink:href="#id9">September</textPath></text><line stroke="#e1ed5e" stroke-width="0.3" x1="15.003131293944662" x2="10.003315487706104" y1="100.72959589197737" y2="100.7725132973878" /><path d="M 14.003168132696942 100.73817937305945 a86.0,86.0 0 0,1 10.791469493833604,-42.45332614584628" fill="none" id="id10" stroke="none" /><text fill="#e1ed5e" style="font-size:6.75px; font-family:Arial;" text-anchor="middle"><textPath startOffset="22.145653131862435" xlink:href="#id10">October</textPath></text><line stroke="#e1ed5e" stroke-width="0.3" x1="26.387840678322718" x2="22.05771365940052" y1="57.49999999999999" y2="54.99999999999999" /><path d="M 25.521815274538284 56.99999999999999 a86.0,86.0 0 0,1 29.574782752854787,-30.34633250058573" fill="none" id="id11" stroke="none" /><text fill="#e1ed5e" style="font-size:6.75px; font-family:Arial;" text-anchor="middle"><textPath startOffset="21.40746469413373" xlink:href="#id11">November</textPath></text><line stroke="#e1ed5e" stroke-width="0.3" x1="56.869717070023135" x2="54.33264160355391" y1="26.7553504044142" y2="22.446841604673864" /><path d="M 56.362301976729285 25.89364864446614 a86.0,86.0 0 0,1 42.16139366436587,-11.88097634709845" fill="none" id="id12" stroke="none" /><text fill="#e1ed5e" style="font-size:6.75px; font-family:Arial;" text-anchor="middle"><textPath startOffset="22.145653131862474" xlink:href="#id12">December</textPath></text></svg>