<?xml version="1.0" encoding="utf-8" ?>
<svg baseProfile="full" height="200mm" version="1.1" viewBox="0,0,200,200" width="200mm" xmlns="http://www.w3.org/2000/svg" xmlns:ev="http://www.w3.org/2001/xml-events" xmlns:xlink="http://www.w3.org/1999/xlink"><defs /><rect fill="#1a1a1a" height="200" width="200" x="0" y="0" /><text alignment-baseline="middle" fill="#e1ed5e" style="dominant-baseline: central; font-size:9.0px; font-family:Arial;" text-anchor="middle" x="100.0" y="100.0">2025</text><line stroke="#e1ed5e" stroke-width="0.3" x1="100.0" x2="100.0" y1="15.0" y2="10.0" /><path d="M 100.0 14.0 a86.0,86.0 0 0,1 42.46469731375804,11.215312516191453" fill="none" id="id13" stroke="none" /><text fill="#e1ed5e" style="font-size:6.75px; font-family:Arial;" text-anchor="middle"><textPath startOffset="22.20632615414155" xlink:href="#id13">January</textPath></text><path d="M 101.08401301168833 79.027996857942 l 1.3097562708083268 -25.33937538622455 a46.37320252654214,46.37320252654214 0 0,0 0.7968195899249142,0.04806633368418309 l -1.745737909572853 25.313075783160063" fill="#ffd013" stroke="none" /><path d="M 101.44485096284872 79.0497635885617 l 4.334552888546152 -62.8507092343149 a84.0,84.0 0 0,0 1.4416392425506352,0.11189895124614191 l -5.415782320459128 62.76678502088029" fill="#4dd2ff" stroke="none" /><path d="M 101.80526077348638 79.07773832637324 l 1.1663734161178492 -13.517808717491508 a34.5680352103212,34.5680352103212 0 0,0 0.592388918002586,0.0562544657377559 l -1.3988874612106792 13.495728707238573" fill="#ff0801" stroke="none" /><path d="M 103.2404852339499 79.25152402106235 l 2.179428045278564 -13.954641722025631 a35.12380728396721,35.12380728396721 0 0,0 0.5965541060665592,0.09843653897380486 l -2.419311357483999 13.915058920112202" fill="#ff1202" stroke="none" /><line stroke="#e1ed5e" stroke-width="0.3" x1="143.23703022742887" x2="145.7803849466894" y1="26.81831364943548" y2="22.513508569990506" /><path d="M 143.74570117128098 25.957352633546492 a86.0,86.0 0 0,1 28.547481713284135,27.462654790039103" fill="none" id="id14" stroke="none" /><text fill="#e1ed5e" style="font-size:6.75px; font-family:Arial;" text-anchor="middle"><textPath startOffset="19.985693538727396" xlink:href="#id14">February</textPath></text><path d="M 113.06298171725822 83.55741782278167 l 8.15009980142068 -10.258659824988046 a34.102069614299154,34.102069614299154 0 0,0 0.4564750414522203,0.3691044044763996 l -8.325478241437391 10.116849323247516" fill="#ff0000" stroke="none" /><line stroke="#e1ed5e" stroke-width="0.3" x1="172.23445277983987" x2="176.4835382374775" y1="55.19839476539836" y2="52.563006222186495" /><path d="M 173.08426987136738 54.67131705675599 a86.0,86.0 0 0,1 12.851231095245387,41.99856678651699" fill="none" id="id15" stroke="none" /><text fill="#e1ed5e" style="font-size:6.75px; font-family:Arial;" text-anchor="middle"><textPath startOffset="22.20632615414155" xlink:href="#id15">March</textPath></text><line stroke="#e1ed5e" stroke-width="0.3" x1="184.98032266829074" x2="189.97916517819016" y1="98.17113171792111" y2="98.06355123074" /><path d="M 185.9800911702706 98.14961562048488 a86.0,86.0 0 0,1 -9.607161424134198,41.387399972396054" fill="none" id="id16" stroke="none" /><text fill="#e1ed5e" style="font-size:6.75px; font-family:Arial;" text-anchor="middle"><textPath startOffset="21.466115282336823" xlink:href="#id16">April</textPath></text><path d="M 120.9764740272857 100.99374915477107 l 32.801237874458124 1.5539409707650103 a53.838025802983466,53.838025802983466 0 0,0 -0.051822045832840544,0.9253174404266674 l -32.76962947773775 -2.118330127527101" fill="#bfff1e" stroke="none" /><path d="M 120.89721153311464 102.0752229133903 l 17.463556592224183 1.7342396487705125 a38.54945571831743,38.54945571831743 0 0,0 -0.07125719758915226,0.6597531511667927 l -17.43111709313398 -2.0345891218220964" fill="#ff4f07" stroke="none" /><path d="M 120.8583938346157 102.4346265915055 l 14.952563493576996 1.7452882029786343 a36.054075393092326,36.054075393092326 0 0,0 -0.07725614181854788,0.6158074632898062 l -14.920305842511599 -2.0024134205558353" fill="#ff2303" stroke="none" /><path d="M 120.81339534386255 102.79330883721812 l 17.55954163209046 2.3566180341104843 a38.716973525063835,38.716973525063835 0 0,0 -0.09433289010357203,0.6597640136742241 l -17.516374690970288 -2.6585275197651175" fill="#ff5207" stroke="none" /><path d="M 120.41448212921028 104.9243191809786 l 16.93360069583315 4.084671567064117 a38.41928168256955,38.41928168256955 0 0,0 -0.16060848784002968,0.6415510722107959 l -16.86078089369806 -4.375550478672308" fill="#ff4d07" stroke="none" /><path d="M 120.32669344350535 105.2749913415812 l 17.371075065258406 4.507977198449511 a38.946478967880665,38.946478967880665 0 0,0 -0.1739830529376857,0.6474556632654741 l -17.290903935978942 -4.806323794890534" fill="#ff5607" stroke="none" /><path d="M 120.23288151984713 105.62410040840565 l 16.92702903890833 4.705178095242366 a38.5688079559199,38.5688079559199 0 0,0 -0.18330719145365693,0.6381163810944654 l -16.843529210568573 -4.995851951841414" fill="#ff4f07" stroke="none" /><path d="M 119.9155931802556 106.66101706037122 l 16.964549011569368 5.674003749965987 a38.88827106571698,38.88827106571698 0 0,0 -0.21779129743301784,0.633003456186886 l -16.864366883193117 -5.965179909242173" fill="#ff5507" stroke="none" /><path d="M 119.67450827220406 107.3425965602758 l 16.65536060350118 6.215839897264208 a38.77744926757156,38.77744926757156 0 0,0 -0.2387688577652183,0.6233501433835965 l -16.545897466142453 -6.501613607480948" fill="#ff5307" stroke="none" /><path d="M 119.54520255179757 107.68017299344265 l 16.18552493747536 6.360007330702144 a38.39025332616583,38.39025332616583 0 0,0 -0.24697251725530706,0.6129655337589492 l -16.073649805962663 -6.637672232303907" fill="#ff4c07" stroke="none" /><line stroke="#e1ed5e" stroke-width="0.3" x1="174.80103733775053" x2="179.2010983576182" y1="140.37084112569926" y2="142.7455964860345" /><path d="M 175.68104954172406 140.8457921977663 a86.0,86.0 0 0,1 -30.038265399797805,32.042727171017184" fill="none" id="id17" stroke="none" /><text fill="#e1ed5e" style="font-size:6.75px; font-family:Arial;" text-anchor="middle"><textPath startOffset="22.206326154141568" xlink:href="#id17">May</textPath></text><line stroke="#e1ed5e" stroke-width="0.3" x1="143.8653032363475" x2="146.44561519142675" y1="172.8068346515853" y2="177.08958963109032" /><path d="M 144.38136562736335 173.6633856474863 a86.0,86.0 0 0,1 -40.68145358897372,12.25698825130547" fill="none" id="id18" stroke="none" /><text fill="#e1ed5e" style="font-size:6.75px; font-family:Arial;" text-anchor="middle"><textPath startOffset="21.466115282336833" xlink:href="#id18">June</textPath></text><line stroke="#e1ed5e" stroke-width="0.3" x1="102.19456741930631" x2="102.32365962044197" y1="184.97166512339345" y2="189.96999836594603" /><path d="M 102.22038585953345 185.97133177190398 a86.0,86.0 0 0,1 -42.740103519485714,-10.115201625700543" fill="none" id="id19" stroke="none" /><text fill="#e1ed5e" style="font-size:6.75px; font-family:Arial;" text-anchor="middle"><textPath startOffset="22.20632615414155" xlink:href="#id19">July</textPath></text><line stroke="#e1ed5e" stroke-width="0.3" x1="58.666819895761336" x2="56.23545636021788" y1="174.27360380694188" y2="178.64263932499728" /><path d="M 58.180547188652646 175.14741091055294 a86.0,86.0 0 0,1 -31.652253787137756,-30.449443065178592" fill="none" id="id20" stroke="none" /><text fill="#e1ed5e" style="font-size:6.75px; font-family:Arial;" text-anchor="middle"><textPath startOffset="22.20632615414155" xlink:href="#id20">August</textPath></text><line stroke="#e1ed5e" stroke-width="0.3" x1="26.63291911575756" x2="22.317208475507996" y1="142.92168965132927" y2="145.44649492493687" /><path d="M 25.769776987707644 143.4266507060508 a86.0,86.0 0 0,1 -11.730757126820373,-40.83630448921669" fill="none" id="id21" stroke="none" /><text fill="#e1ed5e" style="font-size:6.75px; font-family:Arial;" text-anchor="middle"><textPath startOffset="21.46611528233685" xlink:href="#id21">September</textPath></text><line stroke="#e1ed5e" stroke-width="0.3" x1="15.007084014347285" x2="10.007500721073583" y1="101.09737516637583" y2="101.16192664675087" /><path d="M 14.007167355692545 101.11028546245083 a86.0,86.0 0 0,1 10.666146001902534,-42.60595125391555" fill="none" id="id22" stroke="none" /><text fill="#e1ed5e" style="font-size:6.75px; font-family:Arial;" text-anchor="middle"><textPath startOffset="22.20632615414155" xlink:href="#id22">October</textPath></text><line stroke="#e1ed5e" stroke-width="0.3" x1="26.266209847984243" x2="21.928928074336255" y1="57.711370442889674" y2="55.22380399835377" /><path d="M 25.398753493254645 57.213857153982495 a86.0,86.0 0 0,1 29.58750427330803,-30.492523968695096" fill="none" id="id23" stroke="none" /><text fill="#e1ed5e" style="font-size:6.75px; font-family:Arial;" text-anchor="middle"><textPath startOffset="21.46611528233685" xlink:href="#id23">November</textPath></text><line stroke="#e1ed5e" stroke-width="0.3" x1="56.762969772571076" x2="54.21961505331055" y1="26.818313649435495" y2="22.513508569990535" /><path d="M 56.25429882871897 25.957352633546506 a86.0,86.0 0 0,1 42.265352541879196,-11.944610805530505" fill="none" id="id24" stroke="none" /><text fill="#e1ed5e" style="font-size:6.75px; font-family:Arial;" text-anchor="middle"><textPath startOffset="22.20632615414155" xlink:href="#id24">December</textPath></text></svg>