<?xml version="1.0" encoding="utf-8" ?>
<svg baseProfile="full" height="200mm" version="1.1" viewBox="0,0,200,200" width="200mm" xmlns="http://www.w3.org/2000/svg" xmlns:ev="http://www.w3.org/2001/xml-events" xmlns:xlink="http://www.w3.org/1999/xlink"><defs /><rect fill="#1a1a1a" height="200" width="200" x="0" y="0" /><text alignment-baseline="middle" fill="#e1ed5e" style="dominant-baseline: central; font-size:9.0px; font-family:Arial;" text-anchor="middle" x="100.0" y="100.0">2024</text><line stroke="#e1ed5e" stroke-width="0.3" x1="100.0" x2="100.0" y1="15.0" y2="10.0" /><path d="M 100.0 14.0 a86.0,86.0 0 0,1 42.35913384403234,11.155469271406648" fill="none" id="id1" stroke="none" /><text fill="#e1ed5e" style="font-size:6.75px; font-family:Arial;" text-anchor="middle"><textPath startOffset="22.145653131862478" xlink:href="#id1">January</textPath></text><line stroke="#e1ed5e" stroke-width="0.3" x1="143.13028292997686" x2="145.6673583964461" y1="26.7553504044142" y2="22.446841604673864" /><path d="M 143.63769802327073 25.89364864446614 a86.0,86.0 0 0,1 29.32050498858742,28.57503671076993" fill="none" id="id2" stroke="none" /><text fill="#e1ed5e" style="font-size:6.75px; font-family:Arial;" text-anchor="middle"><textPath startOffset="20.669276256404974" xlink:href="#id2">February</textPath></text><line stroke="#e1ed5e" stroke-width="0.3" x1="172.87174338648825" x2="177.1583165268699" y1="56.24261187166439" y2="53.66864786411523" /><path d="M 173.72905801456457 55.72781907015455 a86.0,86.0 0 0,1 12.242430191666344,42.057860355516425" fill="none" id="id3" stroke="none" /><text fill="#e1ed5e" style="font-size:6.75px; font-family:Arial;" text-anchor="middle"><textPath startOffset="22.145653131862474" xlink:href="#id3">March</textPath></text><line stroke="#e1ed5e" stroke-width="0.3" x1="184.99686870605535" x2="189.99668451229388" y1="99.2704041080226" y2="99.22748670261217" /><path d="M 185.99683186730306 99.26182062694052 a86.0,86.0 0 0,1 -10.086455211305974,41.156179273409016" fill="none" id="id4" stroke="none" /><text fill="#e1ed5e" style="font-size:6.75px; font-family:Arial;" text-anchor="middle"><textPath startOffset="21.40746469413373" xlink:href="#id4">April</textPath></text><path d="M 118.8641267826498 109.22738970284198 l 15.410948938243033 7.538267378194123 a38.155839304513194,38.155839304513194 0 0,0 -0.2928553090752682,0.5859067941447982 l -15.279273715956032 -7.801706028502667" fill="#ff4a06" stroke="none" /><path d="M 118.70294669586154 109.54985784667822 l 28.447888834436068 14.525694738096165 a52.94179373111014,52.94179373111014 0 0,0 -0.4202366585223179,0.8058592029969445 l -28.1943441069388 -15.011900184197613" fill="#cbff1d" stroke="none" /><path d="M 118.5362547648365 109.86951160357373 l 16.036595455869 8.538583815419026 a39.168098617855804,39.168098617855804 0 0,0 -0.3210938249423282,0.5907764723426617 l -15.887656281311333 -8.812615121236291" fill="#ff5b08" stroke="none" /><line stroke="#e1ed5e" stroke-width="0.3" x1="174.33088141563837" x2="178.70328620479359" y1="141.23008692659167" y2="143.65538615756765" /><path d="M 175.20536237346943 141.71514677278685 a86.0,86.0 0 0,1 -30.301960400862466,31.631185727798858" fill="none" id="id5" stroke="none" /><text fill="#e1ed5e" style="font-size:6.75px; font-family:Arial;" text-anchor="middle"><textPath startOffset="22.145653131862474" xlink:href="#id5">May</textPath></text><path d="M 117.423217284605 111.72311816256416 l 23.87836760701475 16.06643138368715 a49.780317180018336,49.780317180018336 0 0,0 -0.48313045456554127,0.7049017717396853 l -23.599047415633887 -16.47396789049688" fill="#f9ff18" stroke="none" /><path d="M 117.21940702142032 112.02048342749411 l 24.016314942629094 16.765253030968786 a50.28919754134547,50.28919754134547 0 0,0 -0.5002216225443473,0.7036243565786533 l -23.72497822155479 -17.175054614256947" fill="#f1ff19" stroke="none" /><path d="M 117.01052211995028 112.31430620078461 l 23.90075364430216 17.302302464911975 a50.50619757530478,50.50619757530478 0 0,0 -0.514436840945612,0.697932375198713 l -23.600214783772717 -17.710041149379563" fill="#eeff19" stroke="none" /><path d="M 116.79662413953412 112.60449989151573 l 23.098098158029583 17.333243472529055 a49.87842564607601,49.87842564607601 0 0,0 -0.5197997535868613,0.68043456324146 l -22.797146427088414 -17.72719894901139" fill="#f7ff18" stroke="none" /><path d="M 116.57777611688842 112.89097897827486 l 22.445129359797434 17.45346834832973 a49.432505857982136,49.432505857982136 0 0,0 -0.5266529037113455,0.6654087394462932 l -22.142210025444527 -17.836197031690705" fill="#feff18" stroke="none" /><path d="M 116.35404254752997 113.17365903436017 l 22.947658263889995 18.48500911789316 a50.46677080857134,50.46677080857134 0 0,0 -0.5492543329073409,0.670000978641657 l -22.626957111744026 -18.876212378233312" fill="#efff19" stroke="none" /><path d="M 115.89218393027572 113.72728997021213 l 47.67655179082715 41.181869910636365 a84.0,84.0 0 0,0 -0.9519557441656579,1.0831508887548273 l -46.96258498270291 -41.99423307720248" fill="#4dd2ff" stroke="none" /><path d="M 115.6541949942343 113.99807769240083 l 20.877525420852788 18.668811968536826 a49.00706353788162,49.00706353788162 0 0,0 -0.5661536328227694,0.6223020179909875 l -20.553974087188138 -19.024451562085485" fill="#fff917" stroke="none" /><path d="M 115.41159269507618 114.26474011684316 l 20.98306038982892 19.42160743792325 a49.59174109416919,49.59174109416919 0 0,0 -0.5836337860136047,0.6197988555421967 l -20.646570770079055 -19.77894775340994" fill="#fcff18" stroke="none" /><path d="M 115.16444852881244 114.52719865689866 l 20.215978678528913 19.36645027009208 a48.995449451557036,48.995449451557036 0 0,0 -0.5870429412171523,0.6023577733492501 l -19.880548936160952 -19.710630735509067" fill="#fff917" stroke="none" /><path d="M 114.91283532996324 114.78537596483092 l 19.94935102804902 19.77884477886325 a49.09233538221211,49.09233538221211 0 0,0 -0.5984778341683767,0.5933626697411517 l -19.60688127375068 -20.118387458833062" fill="#fffb17" stroke="none" /><path d="M 114.13192950727249 115.5334660781643 l 19.774924844241536 21.73610646077725 a50.38547220429925,50.38547220429925 0 0,0 -0.6447780248244664,0.5765644856966412 l -19.39888179259369 -22.072366476357278" fill="#f0ff19" stroke="none" /><path d="M 113.86319453409587 115.77377054828091 l 19.47595595943132 22.160062729908844 a50.502224335246375,50.502224335246375 0 0,0 -0.6560972912511853,0.5667212137230444 l -19.09267918841728 -22.491128076096604" fill="#eeff19" stroke="none" /><path d="M 113.59037401385872 116.0094264158162 l 18.740012117795825 22.075687153673265 a49.95727917954291,49.95727917954291 0 0,0 -0.6585455748731935,0.5493821405442207 l -18.358292208760734 -22.394131478129356" fill="#f6ff19" stroke="none" /><path d="M 113.31354834802062 116.24036423190432 l 18.234863720323556 22.24356879142749 a49.762590416680816,49.762590416680816 0 0,0 -0.6652766154576301,0.5358997489520185 l -17.850336334510672 -22.55331683417291" fill="#f9ff18" stroke="none" /><path d="M 113.03279911837588 116.46651593811092 l 18.232160696322314 23.03573944210412 a50.37783135803308,50.37783135803308 0 0,0 -0.6827157054923642,0.5308838619598928 l -17.83403504619472 -23.345324355684806" fill="#f0ff19" stroke="none" /><path d="M 112.16784306229584 117.11559508785304 l 17.166464229973123 24.146781754669977 a50.62692294631033,50.62692294631033 0 0,0 -0.7126460448427249,0.49748228618122675 l -16.74942309395664 -24.437908856656325" fill="#ecff1a" stroke="none" /><path d="M 111.8722381534696 117.32195027204791 l 16.708126649710373 24.377656110341835 a50.55387645600571,50.55387645600571 0 0,0 -0.7200405761465152,0.48447543402129417 l -16.287189785466854 -24.66088121842025" fill="#edff19" stroke="none" /><path d="M 111.5731344415666 117.5232005979908 l 15.897262028107727 24.0704808955494 a49.84633409175808,49.84633409175808 0 0,0 -0.7180586781940029,0.46543695986652506 l -15.481717717656714 -24.33983169711982" fill="#f8ff18" stroke="none" /><path d="M 111.27062007382361 117.71928675628689 l 7.800566697708938 12.26378648848862 a35.53441776751452,35.53441776751452 0 0,0 -0.5175095055180018,0.3229642062807718 l -7.588893063401221 -12.39588649161094" fill="#ff1b02" stroke="none" /><line stroke="#e1ed5e" stroke-width="0.3" x1="143.1302829299769" x2="145.66735839644613" y1="173.24464959558577" y2="177.55315839532614" /><path d="M 143.63769802327073 174.10635135553383 a86.0,86.0 0 0,1 -40.68552437913181,11.842963189579606" fill="none" id="id6" stroke="none" /><text fill="#e1ed5e" style="font-size:6.75px; font-family:Arial;" text-anchor="middle"><textPath startOffset="21.407464694133747" xlink:href="#id6">June</textPath></text><path d="M 110.02825361518725 118.45085714620011 l 22.37036782345904 41.15895716812574 a67.84541719020613,67.84541719020613 0 0,0 -1.0280557403595618,0.5473817762716113 l -21.660523267312925 -41.53690941211991" fill="#34ff5d" stroke="none" /><path d="M 109.71004243097381 118.62028667847754 l 6.649524712747026 12.751340409390291 a35.38098957448976,35.38098957448976 0 0,0 -0.5409463152954384,0.27621104298494653 l -6.429651175738005 -12.863609404048074" fill="#ff1902" stroke="none" /><path d="M 109.3889696526874 118.78422872680471 l 6.500024379476451 13.004402952665266 a35.538391007572926,35.538391007572926 0 0,0 -0.5480354135961681,0.2680715831946754 l -6.275828716618213 -13.114068285957165" fill="#ff1c02" stroke="none" /><path d="M 109.06512990194946 118.94263497670748 l 13.118840994721918 27.413332072278653 a51.39070193907699,51.39070193907699 0 0,0 -0.7990306754844813,0.3739867015507254 l -12.64632160536593 -27.634495005399913" fill="#e1ff1b" stroke="none" /><path d="M 108.73861861582097 119.09545874513695 l 11.886156027498252 25.97339602971453 a49.56392841376031,49.56392841376031 0 0,0 -0.7767059306091277,0.34741068346086723 l -11.438536694033496 -26.173610464085247" fill="#fcff18" stroke="none" /><path d="M 107.407793817531 119.65005319985036 l 10.559526556725714 28.010398738939365 a50.93469623391177,50.93469623391177 0 0,0 -0.8208025601313059,0.301410069380327 l -10.07713484494028 -28.187539657328415" fill="#e8ff1a" stroke="none" /><path d="M 107.06938296918513 119.77432235084164 l 9.44859358351537 26.429397883371937 a49.06757904030971,49.06757904030971 0 0,0 -0.7955822591881011,0.2767448081713743 l -8.993505552282247 -26.587701124111902" fill="#fffa17" stroke="none" /><path d="M 106.72888874123015 119.89276391827305 l 9.602056236145323 28.386773088582913 a50.966787788229695,50.966787788229695 0 0,0 -0.8311888548857999,0.27322828610941513 l -9.113344643611788 -28.547422296094346" fill="#e7ff1a" stroke="none" /><path d="M 106.38641147887787 120.00534299687104 l 8.82725135447752 27.651239142665645 a50.02604679593847,50.02604679593847 0 0,0 -0.8203303721230417,0.2541404462254858 l -8.351280349482852 -27.798696176697774" fill="#f5ff19" stroke="none" /><path d="M 105.3480935250658 120.30758222061773 l 7.309278227199901 27.754519975491004 a49.700852378850136,49.700852378850136 0 0,0 -0.8269149877788646,0.2101985562674783 l -6.831757946195639 -27.87590376359375" fill="#faff18" stroke="none" /><path d="M 104.9986988182912 120.39639698878246 l 6.769628569094592 27.622394703319557 a49.43984107039767,49.43984107039767 0 0,0 -0.8260405026577666,0.19494330943555557 l -6.294455912696946 -27.734534156401338" fill="#feff18" stroke="none" /><path d="M 104.64783097203109 120.47920084513623 l 3.37627222966223 14.876478407925708 a36.254796753489316,36.254796753489316 0 0,0 -0.6081096187815941,0.13253466106779818 l -3.1204001942615 -14.932244527127224" fill="#ff2803" stroke="none" /><path d="M 104.29559338865022 120.5559693870025 l 3.076324979143807 14.721328667381586 a36.03932488878324,36.03932488878324 0 0,0 -0.6066680003464985,0.12135059079757217 l -2.82316049326635 -14.77196865484202" fill="#ff2403" stroke="none" /><path d="M 103.94208987418118 120.62667999033965 l 5.418779081594491 28.3533419129904 a49.86650592590077,49.86650592590077 0 0,0 -0.842186552908923,0.153474444650164 l -4.931257795134511 -28.442184531571925" fill="#f8ff18" stroke="none" /><path d="M 102.875027216393 120.80226474461374 l 1.9999340340474088 14.470526404342309 a35.608075525520434,35.608075525520434 0 0,0 -0.6062227009600876,0.07848766564057774 l -1.7512335111965458 -14.50272566618328" fill="#ff1d02" stroke="none" /><path d="M 102.51750503828377 120.84855314841334 l 1.8152797949351753 15.033120771725338 a36.142323496451255,36.142323496451255 0 0,0 -0.6165950924527789,0.06909076620362255 l -1.5569488008815973 -15.062067298435933" fill="#ff2603" stroke="none" /><path d="M 101.80034050326958 120.92268563240118 l 1.284167022571916 14.923967362825934 a35.979115020205796,35.979115020205796 0 0,0 -0.6158099751814277,0.047667586733520506 l -1.0277880526152525 -14.94381271655451" fill="#ff2303" stroke="none" /><path d="M 101.44090949804482 120.95050786540614 l 1.036868489807303 15.0758402804449 a36.111454477535915,36.111454477535915 0 0,0 -0.6188052784025085,0.037225788919634864 l -0.7779188592723295 -15.091418047189228" fill="#ff2603" stroke="none" /><line stroke="#e1ed5e" stroke-width="0.3" x1="101.45913802915013" x2="101.54496967792366" y1="184.9874750549273" y2="189.98673829345242" /><path d="M 101.47630435890484 185.9873277026323 a86.0,86.0 0 0,1 -42.54439059252881,-10.42667462771756" fill="none" id="id7" stroke="none" /><text fill="#e1ed5e" style="font-size:6.75px; font-family:Arial;" text-anchor="middle"><textPath startOffset="22.145653131862474" xlink:href="#id7">July</textPath></text><path d="M 100.36049292484886 120.99690560180557 l 0.5002696497425858 29.13819907976698 a50.142493293034946,50.142493293034946 0 0,0 -0.8607625745914345,0.007388611462401522 l -3.568926113048846e-15 -29.142493293034946" fill="#f4ff19" stroke="none" /><path d="M 100.0 121.0 l 3.429763783463255e-15 28.006146636329674 a49.006146636329674,49.006146636329674 0 0,0 -0.8412556731667725,-0.007221168174651001 l 0.48076274831791693 -28.002019866349457" fill="#fff917" stroke="none" /><path d="M 99.63950707515114 120.99690560180557 l -0.5423422270756506 31.588715785629024 a52.59337114137264,52.59337114137264 0 0,0 -0.9025690822612696,-0.023246977926099015 l 1.0845246234076642 -31.57475109035288" fill="#d0ff1d" stroke="none" /><path d="M 99.27912038922189 120.98762331915562 l -0.9952089794193753 28.974423567549614 a49.991510170815374,49.991510170815374 0 0,0 -0.8574121024851838,-0.03682096489793242 l 1.4924468425053978 -28.953070034225853" fill="#f6ff19" stroke="none" /><path d="M 98.91894614982273 120.97215588758144 l -0.7576696516618692 14.698588829165795 a35.71810371175332,35.71810371175332 0 0,0 -0.6120648262758793,-0.0368203000577141 l 1.0098788300701949 -14.68341655128339" fill="#ff1f03" stroke="none" /><path d="M 97.48249496171623 120.84855314841334 l -3.3973842181812013 28.135214969268933 a49.33959316738547,49.33959316738547 0 0,0 -0.8399999436297977,-0.10875481008762242 l 3.8798619837017934 -28.072748562980916" fill="#fffe18" stroke="none" /><path d="M 97.12497278360702 120.80226474461374 l -4.045518918189902 29.271359619027265 a50.54959758209665,50.54959758209665 0 0,0 -0.8585605894842071,-0.12617884049651976 l 4.5474046132817945 -29.197599705231863" fill="#edff19" stroke="none" /><path d="M 96.76829788921471 120.74984581791261 l -2.2912695689627194 14.711594278625714 a35.88895303426495,35.88895303426495 0 0,0 -0.6079289517219076,-0.10003447766174058 l 2.5434760237376906 -14.670093802468307" fill="#ff2203" stroke="none" /><path d="M 96.41257539226777 120.69131181640829 l -2.6001775522561994 14.997133151118224 a36.220871396067515,36.220871396067515 0 0,0 -0.6117278573666275,-0.1114771933392856 l 2.8572401431738843 -14.950287783847573" fill="#ff2803" stroke="none" /><path d="M 95.35216902796893 120.47920084513623 l -6.345595153873901 27.95986308885028 a49.670900261486736,49.670900261486736 0 0,0 -0.82990103793089,-0.1958543852483195 l 6.824628345544679 -27.846812559955733" fill="#fbff18" stroke="none" /><path d="M 95.00130118170881 120.39639698878247 l -6.919568435845461 28.234200526768177 a50.06975243658097,50.06975243658097 0 0,0 -0.8330526890884328,-0.21175873593908162 l 7.403226418159272 -28.111256558993833" fill="#f5ff19" stroke="none" /><path d="M 94.6519064749342 120.30758222061772 l -7.425331874855598 28.195194578641573 a50.15655245016471,50.15655245016471 0 0,0 -0.8307324670077035,-0.226419827986139 l 7.9082457427979955 -28.06357425651129" fill="#f3ff19" stroke="none" /><path d="M 94.30408787586889 120.21278271476187 l -7.362526467298356 26.127009067557616 a48.144564811356005,48.144564811356005 0 0,0 -0.793559955604557,-0.23099373760977712 l 7.80994643528452 -25.996771635645324" fill="#ffec16" stroke="none" /><path d="M 93.95794788825049 120.11202640906438 l -8.106026891604502 26.98232717978496 a49.1736339864842,49.1736339864842 0 0,0 -0.806352451380363,-0.24981005064881268 l 8.5680199758565 -26.839200541329497" fill="#fffc17" stroke="none" /><path d="M 92.93061703081489 119.77432235084164 l -9.178410353444665 25.673647302522422 a48.26498454851088,48.26498454851088 0 0,0 -0.7777806841172578,-0.28561184059289124 l 9.617780189216042 -25.51230461292081" fill="#ffee16" stroke="none" /><path d="M 92.59220618246901 119.65005319985036 l -9.472232668192795 25.126222521320923 a47.852378850137534,47.852378850137534 0 0,0 -0.7661570035754421,-0.296365987909988 l 9.902161934261766 -24.95991664527289" fill="#ffe815" stroke="none" /><path d="M 92.25597844496254 119.51999308798841 l -5.3595290862522456 13.509514400881672 a35.533806499813224,35.533806499813224 0 0,0 -0.5650645789302258,-0.22980684499620213 l 5.590648126372913 -13.415520299306179" fill="#ff1b02" stroke="none" /><path d="M 91.92203290615298 119.3841803445677 l -10.411822360728273 24.98458337490494 a48.06723944714233,48.06723944714233 0 0,0 -0.7589243159074587,-0.3239396620315304 l 10.839181751806162 -24.802169063214006" fill="#ffeb16" stroke="none" /><path d="M 91.59046798132341 119.24265499422711 l -11.08323193657261 25.36060364629288 a48.67667334533229,48.67667334533229 0 0,0 -0.7628019424534863,-0.341191606410436 l 11.51694728188173 -25.16660828897259" fill="#fff417" stroke="none" /><path d="M 90.6110303473126 118.78422872680471 l -11.834723163843272 23.677374094442346 a47.47033653682888,47.47033653682888 0 0,0 -0.7257825160986139,-0.37058972412512037 l 12.23943290165547 -23.47072641864439" fill="#ffe215" stroke="none" /><path d="M 90.28995756902619 118.62028667847754 l -6.328021966450312 12.134816501640248 a34.68567256426801,34.68567256426801 0 0,0 -0.5255889972340612,-0.27984653710913837 l 6.535399779470936 -12.024399496808536" fill="#ff0c01" stroke="none" /><path d="M 89.97174638481275 118.45085714620012 l -13.44691562557496 24.740810193386498 a49.15896356165314,49.15896356165314 0 0,0 -0.7379832841444538,-0.4093468875406846 l 13.869643097875516 -24.506330390412664" fill="#fffc17" stroke="none" /><line stroke="#e1ed5e" stroke-width="0.3" x1="58.13341422392154" x2="55.67067388415222" y1="173.97424548756322" y2="178.32567169271397" /><path d="M 57.64086615596768 174.84453072859336 a86.0,86.0 0 0,1 -31.369924170532247,-30.572349798747897" fill="none" id="id8" stroke="none" /><text fill="#e1ed5e" style="font-size:6.75px; font-family:Arial;" text-anchor="middle"><textPath startOffset="22.145653131862474" xlink:href="#id8">August</textPath></text><path d="M 89.65649057296885 118.27599006163327 l -13.16060269985316 23.253523946045892 a47.71942812510612,47.71942812510612 0 0,0 -0.709445947145353,-0.4095988085598617 l 13.557841114858912 -23.02417824020986" fill="#ffe615" stroke="none" /><path d="M 89.34428304082925 118.09573695890944 l -6.59972188650511 11.207770600303942 a34.00655414813055,34.00655414813055 0 0,0 -0.5004910452163475,-0.3005304923766765 l 6.791145688278885 -11.092826107391346" fill="#ff0000" stroke="none" /><path d="M 88.4268655584334 117.5232005979908 l -15.741796231113131 23.835085864011692 a49.56423404761097,49.56423404761097 0 0,0 -0.7059450657747245,-0.4749913455805162 l 16.14863758498486 -23.561344844374055" fill="#fcff18" stroke="none" /><path d="M 88.1277618465304 117.32195027204791 l -15.819648338771962 23.081339702186693 a48.98230719597922,48.98230719597922 0 0,0 -0.6894957358460024,-0.4813215725579069 l 16.21353916579173 -22.80637331382366" fill="#fff917" stroke="none" /><path d="M 87.83215693770417 117.11559508785305 l -15.617451864911878 21.96790187507831 a47.95354365470167,47.95354365470167 0 0,0 -0.6668259698587846,-0.4827305780253318 l 15.992258845144615 -21.696570525679913" fill="#ffe915" stroke="none" /><path d="M 87.54013794807813 116.9041958592261 l -16.195904500306796 21.97285496818792 a48.29677046897817,48.29677046897817 0 0,0 -0.66315378142822,-0.4976429606706712 l 16.57071127064578 -21.691592980253233" fill="#ffef16" stroke="none" /><path d="M 87.2517909369889 116.68781488649013 l -17.610462546629964 23.05266077698088 a50.00954256800354,50.00954256800354 0 0,0 -0.6777246899140492,-0.527002818058303 l 18.00359718117924 -22.746956907301783" fill="#f6ff19" stroke="none" /><path d="M 86.40962598614128 116.0094264158162 l -18.21724202937602 21.459865304001436 a49.14948891228309,49.14948891228309 0 0,0 -0.6385232921161186,-0.5515412118352182 l 18.582944801255 -21.143979959701493" fill="#fffc17" stroke="none" /><path d="M 86.13680546590413 115.77377054828092 l -17.862039047038106 20.323721546246695 a48.05745916392162,48.05745916392162 0 0,0 -0.6149866666358773,-0.5499248695017704 l 18.208290740497354 -20.01410114686154" fill="#ffeb16" stroke="none" /><path d="M 85.86807049272751 115.53346607816431 l -18.754566200592475 20.614553570881515 a48.869222671239854,48.869222671239854 0 0,0 -0.6156829246589802,-0.5698669234519973 l 19.105678896565422 -20.28956890129714" fill="#fff717" stroke="none" /><path d="M 85.60350026404147 115.28858382429668 l -9.7325084689967 10.335586724409195 a35.19669236254967,35.19669236254967 0 0,0 -0.43631749659551566,-0.4179822918374303 l 9.90849845145753 -10.166992302266182" fill="#ff1502" stroke="none" /><path d="M 85.34317274990678 115.03919595460226 l -19.416177342306042 19.922708425071477 a48.81909871973376,48.81909871973376 0 0,0 -0.5951468440107069,-0.5900601494137566 l 19.75531610644671 -19.58646826542906" fill="#fff717" stroke="none" /><path d="M 84.58840730492382 114.26474011684316 l -20.27539322577682 18.766601275733933 a48.62746629537814,48.62746629537814 0 0,0 -0.5617683393091777,-0.6174818122291916 l 20.59455926592788 -18.41578188794707" fill="#fff417" stroke="none" /><path d="M 84.3458050057657 113.99807769240083 l -20.507983469735073 18.338365277138607 a48.51132543213231,48.51132543213231 0 0,0 -0.5497694631215067,-0.6255367292438978 l 20.819763996815173 -17.98361627008341" fill="#fff216" stroke="none" /><path d="M 84.1078160697243 113.72728997021213 l -20.659939337075578 17.84556353559069 a48.30013244133528,48.30013244133528 0 0,0 -0.5366039753280961,-0.6321181336649923 l 20.96323787591079 -17.48827861947614" fill="#ffef16" stroke="none" /><path d="M 83.8745106332314 113.45245675266167 l -10.498633981628394 8.758333864331087 a34.67222467483954,34.67222467483954 0 0,0 -0.37735463016702087,-0.4603112917991618 l 10.647435431034046 -8.57682029083343" fill="#ff0c01" stroke="none" /><path d="M 83.64595745247003 113.17365903436017 l -21.46695687755157 17.292260894410475 a48.56542262369682,48.56542262369682 0 0,0 -0.5174150167143211,-0.653736971003517 l 21.760638324907454 -16.921203979492276" fill="#fff316" stroke="none" /><path d="M 82.98947788004972 112.3143062007846 l -21.868195586899397 15.830887177760117 a47.99694366149353,47.99694366149353 0 0,0 -0.477420802266386,-0.6715521474327487 l 22.13673148769574 -15.453157803617865" fill="#ffea16" stroke="none" /><path d="M 82.78059297857968 112.02048342749411 l -11.658179032005956 8.138314384151649 a35.2177810982443,35.2177810982443 0 0,0 -0.3417973921149259,-0.4986926098344936 l 11.796166160936206 -7.9369870392471045" fill="#ff1602" stroke="none" /><path d="M 82.576782715395 111.72311816256416 l -22.275251407839384 14.987783260079167 a47.84809997622848,47.84809997622848 0 0,0 -0.45267848139782657,-0.6854129169568487 l 22.52925432815794 -14.603190464783259" fill="#ffe815" stroke="none" /><path d="M 82.37810715431573 111.42229804090323 l -11.476214009176305 7.438743269063982 a34.676197914897955,34.676197914897955 0 0,0 -0.3194871818196171,-0.5022869152308527 l 11.602218882621813 -7.240642679154458" fill="#ff0c01" stroke="none" /><path d="M 82.18462484594161 111.11811171558189 l -23.782383680933254 14.841966354394357 a49.0336536828879,49.0336536828879 0 0,0 -0.43950973537708254,-0.7179061222995452 l 24.033661380765743 -14.431523115970254" fill="#fffa17" stroke="none" /><line stroke="#e1ed5e" stroke-width="0.3" x1="26.387840678322732" x2="22.057713659400548" y1="142.50000000000003" y2="145.00000000000006" /><path d="M 25.521815274538298 143.00000000000003 a86.0,86.0 0 0,1 -11.493303480769221,-40.785679425670985" fill="none" id="id9" stroke="none" /><text fill="#e1ed5e" style="font-size:6.75px; font-family:Arial;" text-anchor="middle"><textPath startOffset="21.40746469413373" xlink:href="#id9">September</textPath></text><path d="M 81.63589988554817 110.18625677009913 l -24.879453944189965 13.800213710223472 a49.450538255170315,49.450538255170315 0 0,0 -0.40538762498345776,-0.7458675702097728 l 25.112686918788754 -13.371091306539114" fill="#feff18" stroke="none" /><path d="M 81.4637452351635 109.86951160357371 l -11.924661737775414 6.349210716121926 a34.50962746629538,34.50962746629538 0 0,0 -0.27392744958628124,-0.5252920032697788 l 12.031897256336645 -6.143572469747644" fill="#ff0901" stroke="none" /><path d="M 81.29705330413844 109.54985784667822 l -24.620720936510786 12.571515539764592 a48.64458179101437,48.64458179101437 0 0,0 -0.3733589483264026,-0.7469679998970912 l 24.832899798048924 -12.147015683703748" fill="#fff417" stroke="none" /><path d="M 81.1358732173502 109.22738970284198 l -25.481108492611593 12.464087038366262 a49.366183312391755,49.366183312391755 0 0,0 -0.36582867041721023,-0.7644412206643837 l 25.691316420988716 -12.024833315636773" fill="#ffff18" stroke="none" /><path d="M 80.9802524753101 108.90220220490708 l -24.81797055349219 11.616063351830391 a48.4019085136007,48.4019085136007 0 0,0 -0.3457637241764013,-0.7555561377426172 l 25.01371874252365 -11.188318231873085" fill="#fff016" stroke="none" /><path d="M 80.5471966667186 107.91128576633889 l -25.61406725645544 10.417018166083563 a48.651305735728606,48.651305735728606 0 0,0 -0.3079890023398072,-0.7763334792035472 l 25.789114933761372 -9.975783669666452" fill="#fff417" stroke="none" /><path d="M 80.41425534168474 107.57618678355246 l -12.243786516821247 4.736159651197973 a34.12789078683737,34.12789078683737 0 0,0 -0.20666764448655806,-0.5482104805938213 l 12.323284845122242 -4.525280890410007" fill="#ff0200" stroke="none" /><path d="M 80.28708602549918 107.23885506374661 l -24.860311389534782 9.129050693430436 a47.4834787924067,47.4834787924067 0 0,0 -0.2744089005699288,-0.7675705333071395 l 25.013360460148654 -8.700945203742375" fill="#ffe215" stroke="none" /><path d="M 80.16572619554312 106.89939002012753 l -25.054351299092698 8.715203945348717 a47.526878799198556,47.526878799198556 0 0,0 -0.2614308270700293,-0.7728737870188465 l 25.200267547735095 -8.283828483855709" fill="#ffe315" stroke="none" /><path d="M 80.05021161711548 106.5578916946017 l -26.63284989977415 8.75474675767208 a49.03487621829049,49.03487621829049 0 0,0 -0.25599774242949547,-0.8019092820224047 l 26.7792123579809 -8.296268441958283" fill="#fffa17" stroke="none" /><path d="M 79.94057633289273 106.21446072829308 l -26.652800298816143 8.257105662892492 a48.90253676096037,48.90253676096037 0 0,0 -0.2415405273335519,-0.804009858694377 l 26.790617146153323 -7.798358200607391" fill="#fff817" stroke="none" /><path d="M 79.56144815229197 104.8234425847677 l -26.18889932844088 6.180508932836236 a47.90830984480593,47.90830984480593 0 0,0 -0.18202679841644923,-0.8020436600211762 l 26.291136988414994 -5.730030938876034" fill="#ffe915" stroke="none" /><path d="M 79.48165901384964 104.47187691870673 l -14.017699269353917 3.0550923126927216 a35.34675858321731,35.34675858321731 0 0,0 -0.12412147108880502,-0.593966171638269 l 14.06807845126709 -2.8140096897690436" fill="#ff1802" stroke="none" /><path d="M 79.407916724674 104.11899336999214 l -14.14330240668491 2.829056587622349 a35.423472679729684,35.423472679729684 0 0,0 -0.1141541779275727,-0.5973028958811781 l 14.18978287689464 -2.585851126707856" fill="#ff1902" stroke="none" /><path d="M 79.22317932658666 103.0534771498775 l -13.04280241168886 1.9168428009498821 a34.18290487995382,34.18290487995382 0 0,0 -0.08033875218558596,-0.5812911901102789 l 13.07378568042966 -1.6926633026395177" fill="#ff0300" stroke="none" /><path d="M 79.17382384314188 102.69636545807758 l -28.2611156900188 3.658967233320334 a49.49699460046864,49.49699460046864 0 0,0 -0.1018646115737649,-0.8435851114664805 l 28.319762387852226 -3.173288444930454" fill="#fdff18" stroke="none" /><path d="M 79.13060592940153 102.33845913500099 l -27.03709787446299 3.02956321082304 a48.206302849186685,48.206302849186685 0 0,0 -0.08509011018683785,-0.8231696285322754 l 27.085120377131496 -2.564989060007833" fill="#ffed16" stroke="none" /><path d="M 79.0935383218832 101.97986365728391 l -28.46256196007471 2.6954342100331696 a49.5899072910653,49.5899072910653 0 0,0 -0.07298306595817708,-0.8481738553115646 l 28.504638648730626 -2.206439307345943" fill="#fcff18" stroke="none" /><path d="M 79.06263194458094 101.62068470465958 l -28.24836718957728 2.1866022756334913 a49.33286922267125,49.33286922267125 0 0,0 -0.05810951280622439,-0.8448995629175011 l 28.28174066354857 -1.7013592885616469" fill="#fffe18" stroke="none" /><path d="M 79.01933749520258 100.90099992219065 l -27.690272857131383 1.189139460396373 a48.7157944782151,48.7157944782151 0 0,0 -0.02870824785072044,-0.8358093127277496 l 27.70660579197895 -0.7136238831045034" fill="#fff517" stroke="none" /><path d="M 79.00696218219943 100.54070618675478 l -27.646721417452 0.7120814740411897 a48.65589024348831,48.65589024348831 0 0,0 -0.01433858594760122,-0.8351507473588884 l 27.654871434998267 -0.23738381071324896" fill="#fff417" stroke="none" /><line stroke="#e1ed5e" stroke-width="0.3" x1="15.003131293944662" x2="10.003315487706104" y1="100.72959589197737" y2="100.7725132973878" /><path d="M 14.003168132696942 100.73817937305945 a86.0,86.0 0 0,1 10.791469493833604,-42.45332614584628" fill="none" id="id10" stroke="none" /><text fill="#e1ed5e" style="font-size:6.75px; font-family:Arial;" text-anchor="middle"><textPath startOffset="22.145653131862435" xlink:href="#id10">October</textPath></text><path d="M 79.17382384314186 97.30363454192245 l -27.346953966693835 -3.5406106960805803 a48.57520290691751,48.57520290691751 0 0,0 0.1141644106142755,-0.8260368042673494 l 27.28214503952435 4.009535808547997" fill="#fff316" stroke="none" /><path d="M 79.22317932658666 96.9465228501225 l -28.446329985737275 -4.180630904730896 a49.75189323190817,49.75189323190817 0 0,0 0.13143622856202344,-0.8439148733566856 l 28.370372265036984 4.668333960019032" fill="#f9ff18" stroke="none" /><path d="M 79.2786578344484 96.59031103205396 l -26.35371839691009 -4.336494333445551 a47.70811967263219,47.70811967263219 0 0,0 0.13991015510197047,-0.8069645949512899 l 26.275393424315887 4.7882519613174335" fill="#ffe615" stroke="none" /><path d="M 79.34024301695615 96.23510406497455 l -26.275994788228275 -4.7883615498547565 a47.70873094033348,47.70873094033348 0 0,0 0.153744129202154,-0.804454250070849 l 26.189924366743963 5.23871836495892" fill="#ffe615" stroke="none" /><path d="M 79.48165901384962 95.52812308129327 l -27.743344473276164 -6.046532801141947 a49.39460726050192,49.39460726050192 0 0,0 0.18767395985776736,-0.8269260953028313 l 27.635459651860735 6.521893230383786" fill="#ffff18" stroke="none" /><path d="M 79.56144815229197 95.17655741523228 l -28.315756476796214 -6.682441428716341 a50.09359187693144,50.09359187693144 0 0,0 0.20469785831631235,-0.8352371152459835 l 28.1968710919636 7.167534368570443" fill="#f4ff19" stroke="none" /><path d="M 79.64726062577567 94.8264132398404 l -13.82369740962651 -3.5139298243788315 a35.263320541990694,35.263320541990694 0 0,0 0.15416875083378812,-0.5854038581661724 l 13.761339177987995 3.7507141869177887" fill="#ff1702" stroke="none" /><path d="M 79.73907114497095 94.47779374421319 l -27.921352620325006 -7.610088817409608 a49.93985805005603,49.93985805005603 0 0,0 0.23253307741503818,-0.8251778583227506 l 27.786601050835387 8.08827459963537" fill="#f7ff19" stroke="none" /><path d="M 79.83685265289637 94.1308016681162 l -26.050818848067443 -7.583013697970502 a48.132033823479475,48.132033823479475 0 0,0 0.23773484161338373,-0.791341968664137 l 25.91680768645043 8.029093270225363" fill="#ffec16" stroke="none" /><path d="M 80.16572619554312 93.10060997987247 l -27.28113532454639 -9.48979502106242 a49.88453832308895,49.88453832308895 0 0,0 0.28828471849173676,-0.8063836656078563 l 27.114210436010712 9.956713643051199" fill="#f7ff18" stroke="none" /><path d="M 80.28708602549916 92.7611449362534 l -26.595492325518286 -9.766233167883891 a49.3319523211193,49.3319523211193 0 0,0 0.29873860203693287,-0.7924396341839819 l 26.423923039666917 10.221341082262018" fill="#fffe18" stroke="none" /><path d="M 80.41425534168474 92.42381321644754 l -26.73377324672544 -10.34119779869282 a49.66417631677251,49.66417631677251 0 0,0 0.31440101934606723,-0.7924959506988448 l 26.552313552413242 10.798594766605248" fill="#fbff18" stroke="none" /><path d="M 80.5471966667186 92.08871423366112 l -26.30345462237495 -10.697386006237538 a49.39552416205387,49.39552416205387 0 0,0 0.3261848855643233,-0.7827249819161946 l 26.11594389227415 11.147343497594997" fill="#ffff18" stroke="none" /><path d="M 80.68587082218212 91.75594674310238 l -13.428880359559699 -5.731990494910026 a35.60104594695555,35.60104594695555 0 0,0 0.24474213330939032,-0.5600178967586458 l 13.328504344233332 5.961670461444539" fill="#ff1d02" stroke="none" /><path d="M 81.1358732173502 90.77261029715801 l -25.317477665860483 -12.384047001357017 a49.184025537406185,49.184025537406185 0 0,0 0.37749930974832996,-0.7552514962590997 l 25.10115844290041 12.816830353779887" fill="#fffc17" stroke="none" /><path d="M 81.29705330413844 90.45014215332179 l -25.563902783332352 -13.053110911188401 a49.70360308350597,49.70360308350597 0 0,0 0.3945328369948924,-0.7565687360421957 l 25.336061877362518 13.490025890335083" fill="#faff18" stroke="none" /><path d="M 81.46374523516351 90.13048839642627 l -24.93058776777751 -13.274133765401116 a49.24423540598364,49.24423540598364 0 0,0 0.4036963871322136,-0.7427558830515867 l 24.699046031029948 13.700144481927321" fill="#fffd17" stroke="none" /><line stroke="#e1ed5e" stroke-width="0.3" x1="26.387840678322718" x2="22.05771365940052" y1="57.49999999999999" y2="54.99999999999999" /><path d="M 25.521815274538284 56.99999999999999 a86.0,86.0 0 0,1 29.574782752854787,-30.34633250058573" fill="none" id="id11" stroke="none" /><text fill="#e1ed5e" style="font-size:6.75px; font-family:Arial;" text-anchor="middle"><textPath startOffset="21.40746469413373" xlink:href="#id11">November</textPath></text><line stroke="#e1ed5e" stroke-width="0.3" x1="56.869717070023135" x2="54.33264160355391" y1="26.7553504044142" y2="22.446841604673864" /><path d="M 56.362301976729285 25.89364864446614 a86.0,86.0 0 0,1 42.16139366436587,-11.88097634709845" fill="none" id="id12" stroke="none" /><text fill="#e1ed5e" style="font-size:6.75px; font-family:Arial;" text-anchor="middle"><textPath startOffset="22.145653131862474" xlink:href="#id12">December</textPath></text></svg>